<?xml version="1.0" encoding="utf-8" standalone="no"?>
<!DOCTYPE svg PUBLIC "-//W3C//DTD SVG 1.1//EN"
  "http://www.w3.org/Graphics/SVG/1.1/DTD/svg11.dtd">
<svg xmlns:xlink="http://www.w3.org/1999/xlink" width="408.354383pt" height="304.899768pt" viewBox="0 0 408.354383 304.899768" xmlns="http://www.w3.org/2000/svg" version="1.1">
 <metadata>
  <rdf:RDF xmlns:dc="http://purl.org/dc/elements/1.1/" xmlns:cc="http://creativecommons.org/ns#" xmlns:rdf="http://www.w3.org/1999/02/22-rdf-syntax-ns#">
   <cc:Work>
    <dc:type rdf:resource="http://purl.org/dc/dcmitype/StillImage"/>
    <dc:date>2023-09-09T12:36:56.710080</dc:date>
    <dc:format>image/svg+xml</dc:format>
    <dc:creator>
     <cc:Agent>
      <dc:title>Matplotlib v3.7.2, https://matplotlib.org/</dc:title>
     </cc:Agent>
    </dc:creator>
   </cc:Work>
  </rdf:RDF>
 </metadata>
 <defs>
  <style type="text/css">*{stroke-linejoin: round; stroke-linecap: butt}</style>
 </defs>
 <g id="figure_1">
  <g id="patch_1">
   <path d="M -0 304.899768 
L 408.354383 304.899768 
L 408.354383 0 
L -0 0 
z
" style="fill: #ffffff"/>
  </g>
  <g id="axes_1">
   <g id="patch_2">
    <path d="M 206.520093 112.089831 
C 216.067405 112.089831 225.224968 108.296644 231.975937 101.545675 
C 238.726906 94.794707 242.520093 85.637143 242.520093 76.089831 
C 242.520093 66.54252 238.726906 57.384956 231.975937 50.633987 
C 225.224968 43.883018 216.067405 40.089831 206.520093 40.089831 
C 196.972782 40.089831 187.815218 43.883018 181.064249 50.633987 
C 174.31328 57.384956 170.520093 66.54252 170.520093 76.089831 
C 170.520093 85.637143 174.31328 94.794707 181.064249 101.545675 
C 187.815218 108.296644 196.972782 112.089831 206.520093 112.089831 
z
" clip-path="url(#p338d9a9bd4)" style="fill: #add8e6; stroke: #000000; stroke-width: 2; stroke-linejoin: miter"/>
   </g>
   <g id="patch_3">
    <path d="M 62.520093 256.089831 
C 72.067405 256.089831 81.224968 252.296644 87.975937 245.545675 
C 94.726906 238.794707 98.520093 229.637143 98.520093 220.089831 
C 98.520093 210.54252 94.726906 201.384956 87.975937 194.633987 
C 81.224968 187.883018 72.067405 184.089831 62.520093 184.089831 
C 52.972782 184.089831 43.815218 187.883018 37.064249 194.633987 
C 30.31328 201.384956 26.520093 210.54252 26.520093 220.089831 
C 26.520093 229.637143 30.31328 238.794707 37.064249 245.545675 
C 43.815218 252.296644 52.972782 256.089831 62.520093 256.089831 
z
" clip-path="url(#p338d9a9bd4)" style="fill: #add8e6; stroke: #000000; stroke-width: 2; stroke-linejoin: miter"/>
   </g>
   <g id="patch_4">
    <path d="M 350.520093 256.089831 
C 360.067405 256.089831 369.224968 252.296644 375.975937 245.545675 
C 382.726906 238.794707 386.520093 229.637143 386.520093 220.089831 
C 386.520093 210.54252 382.726906 201.384956 375.975937 194.633987 
C 369.224968 187.883018 360.067405 184.089831 350.520093 184.089831 
C 340.972782 184.089831 331.815218 187.883018 325.064249 194.633987 
C 318.31328 201.384956 314.520093 210.54252 314.520093 220.089831 
C 314.520093 229.637143 318.31328 238.794707 325.064249 245.545675 
C 331.815218 252.296644 340.972782 256.089831 350.520093 256.089831 
z
" clip-path="url(#p338d9a9bd4)" style="fill: #add8e6; stroke: #000000; stroke-width: 2; stroke-linejoin: miter"/>
   </g>
   <g id="patch_5">
    <path d="M 98.520093 220.089831 
Q 206.520093 198.489831 310.10748 219.207309 
" clip-path="url(#p338d9a9bd4)" style="fill: none; stroke: #000000; stroke-width: 2; stroke-linejoin: miter; stroke-linecap: round"/>
   </g>
   <g id="patch_6">
    <path d="M 306.224381 215.677218 
L 314.520093 220.089831 
L 305.165353 220.972354 
z
" clip-path="url(#p338d9a9bd4)"/>
   </g>
   <g id="patch_7">
    <path d="M 325.064249 245.545675 
Q 206.520093 269.254507 92.38855 246.428198 
" clip-path="url(#p338d9a9bd4)" style="fill: none; stroke: #000000; stroke-width: 2; stroke-linejoin: miter; stroke-linecap: round"/>
   </g>
   <g id="patch_8">
    <path d="M 96.27165 249.958288 
L 87.975937 245.545675 
L 97.330677 244.663153 
z
" clip-path="url(#p338d9a9bd4)"/>
   </g>
   <g id="line2d_1">
    <path d="M 181.064249 101.545675 
L 94.339898 188.270026 
" clip-path="url(#p338d9a9bd4)" style="fill: none; stroke: #000000; stroke-width: 2; stroke-linecap: round"/>
   </g>
   <g id="patch_9">
    <path d="M 96.249087 190.179214 
L 87.975937 194.633987 
L 92.43071 186.360838 
z
" clip-path="url(#p338d9a9bd4)"/>
   </g>
   <g id="line2d_2">
    <path d="M 176.408948 42.931509 
L 180.171559 49.156977 
L 179.399636 47.613414 
L 178.753407 46.01315 
L 178.236999 44.366403 
L 177.853708 42.683684 
L 177.60598 40.975737 
L 177.495398 39.253463 
L 177.522667 37.527859 
L 177.687612 35.80994 
L 177.989182 34.110672 
L 178.425451 32.440905 
L 178.993634 30.811297 
L 179.690103 29.232251 
L 180.510413 27.713849 
L 181.449326 26.265783 
L 182.500849 24.897297 
L 183.65827 23.617128 
L 184.914198 22.433449 
L 186.260617 21.353815 
L 187.688932 20.385118 
L 189.190023 19.533544 
L 190.754309 18.804528 
L 192.371802 18.202724 
L 194.032178 17.731974 
L 195.724837 17.395284 
L 197.438973 17.194801 
L 199.163642 17.131808 
L 200.887836 17.206704 
L 202.600547 17.419014 
L 204.290841 17.76738 
L 205.947929 18.24958 
L 207.56123 18.862534 
L 209.120446 19.60233 
L 210.615624 20.464245 
L 212.037217 21.442778 
L 213.376152 22.53168 
L 214.623881 23.724 
L 215.772437 25.012128 
L 216.814489 26.387839 
L 217.743385 27.842351 
L 218.553194 29.36638 
L 219.238747 30.950195 
L 219.795668 32.583686 
L 220.220401 34.256425 
L 220.510234 35.957734 
L 220.663318 37.676751 
L 220.678675 39.402502 
L 220.556208 41.123971 
L 220.296697 42.830168 
" clip-path="url(#p338d9a9bd4)" style="fill: none; stroke: #000000; stroke-width: 2; stroke-linecap: round"/>
   </g>
   <g id="patch_10">
    <path d="M 179.489939 41.069388 
L 181.064249 50.633987 
L 173.327957 44.793629 
z
" clip-path="url(#p338d9a9bd4)"/>
   </g>
   <g id="line2d_3">
    <path d="M 62.520093 256.089831 
L 63.432783 258.046488 
L 64.145579 260.084486 
L 64.651357 262.183462 
L 64.945066 264.322444 
L 65.02377 266.480062 
L 64.886683 268.634759 
L 64.535175 270.765006 
L 63.972758 272.84952 
L 63.20505 274.867473 
L 62.239723 276.798705 
L 61.086422 278.623919 
L 59.756668 280.324879 
L 58.263748 281.884591 
L 56.622578 283.287471 
L 54.849556 284.519503 
L 52.962396 285.568377 
L 50.979952 286.423613 
L 48.922033 287.076668 
L 46.8092 287.521015 
L 44.662561 287.752216 
L 42.503565 287.76796 
L 40.353783 287.56809 
L 38.234694 287.154604 
L 36.16747 286.531631 
L 34.172765 285.705397 
L 32.270508 284.684157 
L 30.479707 283.478114 
L 28.818252 282.099318 
L 27.302744 280.561544 
L 25.948325 278.880158 
L 24.768527 277.071958 
L 23.775138 275.15501 
L 22.978082 273.148468 
L 22.385324 271.072378 
L 22.002786 268.947484 
L 21.83429 266.795015 
L 21.881519 264.636479 
L 22.144002 262.49344 
L 22.619115 260.387312 
L 23.302113 258.339135 
L 24.18617 256.369376 
L 25.262455 254.497713 
L 26.520214 252.742847 
L 27.946879 251.122311 
L 29.528198 249.652297 
L 31.24837 248.347491 
L 33.09021 247.220931 
L 35.035314 246.283871 
L 28.606646 248.622841 
" clip-path="url(#p338d9a9bd4)" style="fill: none; stroke: #000000; stroke-width: 2; stroke-linecap: round"/>
   </g>
   <g id="patch_11">
    <path d="M 27.37578 245.2398 
L 37.064249 245.545675 
L 29.837512 252.005882 
z
" clip-path="url(#p338d9a9bd4)"/>
   </g>
   <g id="text_1">
    <!-- 0 -->
    <g transform="translate(202.543531 79.53905) scale(0.125 -0.125)">
     <defs>
      <path id="DejaVuSans-30" d="M 2034 4250 
Q 1547 4250 1301 3770 
Q 1056 3291 1056 2328 
Q 1056 1369 1301 889 
Q 1547 409 2034 409 
Q 2525 409 2770 889 
Q 3016 1369 3016 2328 
Q 3016 3291 2770 3770 
Q 2525 4250 2034 4250 
z
M 2034 4750 
Q 2819 4750 3233 4129 
Q 3647 3509 3647 2328 
Q 3647 1150 3233 529 
Q 2819 -91 2034 -91 
Q 1250 -91 836 529 
Q 422 1150 422 2328 
Q 422 3509 836 4129 
Q 1250 4750 2034 4750 
z
" transform="scale(0.015625)"/>
     </defs>
     <use xlink:href="#DejaVuSans-30"/>
    </g>
   </g>
   <g id="text_2">
    <!-- 1 -->
    <g transform="translate(58.543531 223.53905) scale(0.125 -0.125)">
     <defs>
      <path id="DejaVuSans-31" d="M 794 531 
L 1825 531 
L 1825 4091 
L 703 3866 
L 703 4441 
L 1819 4666 
L 2450 4666 
L 2450 531 
L 3481 531 
L 3481 0 
L 794 0 
L 794 531 
z
" transform="scale(0.015625)"/>
     </defs>
     <use xlink:href="#DejaVuSans-31"/>
    </g>
   </g>
   <g id="text_3">
    <!-- 2 -->
    <g transform="translate(346.543531 223.53905) scale(0.125 -0.125)">
     <defs>
      <path id="DejaVuSans-32" d="M 1228 531 
L 3431 531 
L 3431 0 
L 469 0 
L 469 531 
Q 828 903 1448 1529 
Q 2069 2156 2228 2338 
Q 2531 2678 2651 2914 
Q 2772 3150 2772 3378 
Q 2772 3750 2511 3984 
Q 2250 4219 1831 4219 
Q 1534 4219 1204 4116 
Q 875 4013 500 3803 
L 500 4441 
Q 881 4594 1212 4672 
Q 1544 4750 1819 4750 
Q 2544 4750 2975 4387 
Q 3406 4025 3406 3419 
Q 3406 3131 3298 2873 
Q 3191 2616 2906 2266 
Q 2828 2175 2409 1742 
Q 1991 1309 1228 531 
z
" transform="scale(0.015625)"/>
     </defs>
     <use xlink:href="#DejaVuSans-32"/>
    </g>
   </g>
  </g>
 </g>
 <defs>
  <clipPath id="p338d9a9bd4">
   <rect x="3.6" y="3.6" width="401.154383" height="297.699768"/>
  </clipPath>
 </defs>
</svg>
