<?xml version="1.0" encoding="utf-8" standalone="no"?>
<!DOCTYPE svg PUBLIC "-//W3C//DTD SVG 1.1//EN"
  "http://www.w3.org/Graphics/SVG/1.1/DTD/svg11.dtd">
<svg xmlns:xlink="http://www.w3.org/1999/xlink" width="413.508766pt" height="307.73166pt" viewBox="0 0 413.508766 307.73166" xmlns="http://www.w3.org/2000/svg" version="1.1">
 <metadata>
  <rdf:RDF xmlns:dc="http://purl.org/dc/elements/1.1/" xmlns:cc="http://creativecommons.org/ns#" xmlns:rdf="http://www.w3.org/1999/02/22-rdf-syntax-ns#">
   <cc:Work>
    <dc:type rdf:resource="http://purl.org/dc/dcmitype/StillImage"/>
    <dc:date>2023-09-09T14:32:29.202941</dc:date>
    <dc:format>image/svg+xml</dc:format>
    <dc:creator>
     <cc:Agent>
      <dc:title>Matplotlib v3.7.2, https://matplotlib.org/</dc:title>
     </cc:Agent>
    </dc:creator>
   </cc:Work>
  </rdf:RDF>
 </metadata>
 <defs>
  <style type="text/css">*{stroke-linejoin: round; stroke-linecap: butt}</style>
 </defs>
 <g id="figure_1">
  <g id="patch_1">
   <path d="M -0 307.73166 
L 413.508766 307.73166 
L 413.508766 0 
L -0 0 
z
" style="fill: #ffffff"/>
  </g>
  <g id="axes_1">
   <g id="patch_2">
    <path d="M 206.754383 113.992204 
C 216.301695 113.992204 225.459259 110.199017 232.210227 103.448048 
C 238.961196 96.697079 242.754383 87.539516 242.754383 77.992204 
C 242.754383 68.444892 238.961196 59.287329 232.210227 52.53636 
C 225.459259 45.785391 216.301695 41.992204 206.754383 41.992204 
C 197.207072 41.992204 188.049508 45.785391 181.298539 52.53636 
C 174.54757 59.287329 170.754383 68.444892 170.754383 77.992204 
C 170.754383 87.539516 174.54757 96.697079 181.298539 103.448048 
C 188.049508 110.199017 197.207072 113.992204 206.754383 113.992204 
z
" clip-path="url(#pe819b05a55)" style="fill: #add8e6; stroke: #000000; stroke-width: 2; stroke-linejoin: miter"/>
   </g>
   <g id="patch_3">
    <path d="M 62.754383 257.992204 
C 72.301695 257.992204 81.459259 254.199017 88.210227 247.448048 
C 94.961196 240.697079 98.754383 231.539516 98.754383 221.992204 
C 98.754383 212.444892 94.961196 203.287329 88.210227 196.53636 
C 81.459259 189.785391 72.301695 185.992204 62.754383 185.992204 
C 53.207072 185.992204 44.049508 189.785391 37.298539 196.53636 
C 30.54757 203.287329 26.754383 212.444892 26.754383 221.992204 
C 26.754383 231.539516 30.54757 240.697079 37.298539 247.448048 
C 44.049508 254.199017 53.207072 257.992204 62.754383 257.992204 
z
" clip-path="url(#pe819b05a55)" style="fill: #add8e6; stroke: #000000; stroke-width: 2; stroke-linejoin: miter"/>
   </g>
   <g id="patch_4">
    <path d="M 350.754383 257.992204 
C 360.301695 257.992204 369.459259 254.199017 376.210227 247.448048 
C 382.961196 240.697079 386.754383 231.539516 386.754383 221.992204 
C 386.754383 212.444892 382.961196 203.287329 376.210227 196.53636 
C 369.459259 189.785391 360.301695 185.992204 350.754383 185.992204 
C 341.207072 185.992204 332.049508 189.785391 325.298539 196.53636 
C 318.54757 203.287329 314.754383 212.444892 314.754383 221.992204 
C 314.754383 231.539516 318.54757 240.697079 325.298539 247.448048 
C 332.049508 254.199017 341.207072 257.992204 350.754383 257.992204 
z
" clip-path="url(#pe819b05a55)" style="fill: #add8e6; stroke: #000000; stroke-width: 2; stroke-linejoin: miter"/>
   </g>
   <g id="patch_5">
    <path d="M 62.754383 185.992204 
Q 84.354383 99.592204 166.388742 79.083614 
" clip-path="url(#pe819b05a55)" style="fill: none; stroke: #000000; stroke-width: 2; stroke-linejoin: miter; stroke-linecap: round"/>
   </g>
   <g id="patch_6">
    <path d="M 161.368255 77.55564 
L 170.754383 77.992204 
L 162.677947 82.794409 
z
" clip-path="url(#pe819b05a55)"/>
   </g>
   <g id="patch_7">
    <path d="M 350.754383 185.992204 
Q 329.154383 99.592204 247.120025 79.083614 
" clip-path="url(#pe819b05a55)" style="fill: none; stroke: #000000; stroke-width: 2; stroke-linejoin: miter; stroke-linecap: round"/>
   </g>
   <g id="patch_8">
    <path d="M 250.83082 82.794409 
L 242.754383 77.992204 
L 252.140512 77.55564 
z
" clip-path="url(#pe819b05a55)"/>
   </g>
   <g id="patch_9">
    <path d="M 325.298539 247.448048 
Q 206.754383 271.156879 92.62284 248.330571 
" clip-path="url(#pe819b05a55)" style="fill: none; stroke: #000000; stroke-width: 2; stroke-linejoin: miter; stroke-linecap: round"/>
   </g>
   <g id="patch_10">
    <path d="M 96.50594 251.860661 
L 88.210227 247.448048 
L 97.564967 246.565526 
z
" clip-path="url(#pe819b05a55)"/>
   </g>
   <g id="line2d_1">
    <path d="M 181.298539 103.448048 
L 94.574188 190.172399 
" clip-path="url(#pe819b05a55)" style="fill: none; stroke: #000000; stroke-width: 2; stroke-linecap: round"/>
   </g>
   <g id="patch_11">
    <path d="M 96.483377 192.081587 
L 88.210227 196.53636 
L 92.665 188.263211 
z
" clip-path="url(#pe819b05a55)"/>
   </g>
   <g id="line2d_2">
    <path d="M 232.210227 103.448048 
L 318.934578 190.172399 
" clip-path="url(#pe819b05a55)" style="fill: none; stroke: #000000; stroke-width: 2; stroke-linecap: round"/>
   </g>
   <g id="patch_12">
    <path d="M 320.843766 188.263211 
L 325.298539 196.53636 
L 317.02539 192.081587 
z
" clip-path="url(#pe819b05a55)"/>
   </g>
   <g id="line2d_3">
    <path d="M 176.643238 44.833882 
L 180.405849 51.05935 
L 179.633926 49.515786 
L 178.987697 47.915523 
L 178.471289 46.268776 
L 178.087998 44.586057 
L 177.84027 42.87811 
L 177.729688 41.155836 
L 177.756957 39.430232 
L 177.921903 37.712313 
L 178.223472 36.013045 
L 178.659741 34.343278 
L 179.227924 32.71367 
L 179.924393 31.134624 
L 180.744703 29.616222 
L 181.683616 28.168155 
L 182.735139 26.79967 
L 183.89256 25.519501 
L 185.148488 24.335821 
L 186.494907 23.256187 
L 187.923222 22.287491 
L 189.424313 21.435917 
L 190.988599 20.706901 
L 192.606092 20.105097 
L 194.266468 19.634347 
L 195.959127 19.297656 
L 197.673263 19.097174 
L 199.397932 19.03418 
L 201.122126 19.109077 
L 202.834837 19.321386 
L 204.525132 19.669753 
L 206.182219 20.151952 
L 207.79552 20.764907 
L 209.354736 21.504703 
L 210.849914 22.366618 
L 212.271508 23.34515 
L 213.610442 24.434052 
L 214.858171 25.626373 
L 216.006727 26.9145 
L 217.048779 28.290211 
L 217.977675 29.744724 
L 218.787484 31.268752 
L 219.473038 32.852568 
L 220.029958 34.486059 
L 220.454691 36.158798 
L 220.744524 37.860106 
L 220.897608 39.579123 
L 220.912965 41.304875 
L 220.790498 43.026344 
L 220.530987 44.732541 
" clip-path="url(#pe819b05a55)" style="fill: none; stroke: #000000; stroke-width: 2; stroke-linecap: round"/>
   </g>
   <g id="patch_13">
    <path d="M 179.724229 42.971761 
L 181.298539 52.53636 
L 173.562247 46.696002 
z
" clip-path="url(#pe819b05a55)"/>
   </g>
   <g id="line2d_4">
    <path d="M 98.754383 221.992204 
L 305.754383 221.992204 
" clip-path="url(#pe819b05a55)" style="fill: none; stroke: #000000; stroke-width: 2; stroke-linecap: round"/>
   </g>
   <g id="patch_14">
    <path d="M 305.754383 219.292204 
L 314.754383 221.992204 
L 305.754383 224.692204 
z
" clip-path="url(#pe819b05a55)"/>
   </g>
   <g id="line2d_5">
    <path d="M 62.754383 257.992204 
L 63.667074 259.948861 
L 64.379869 261.986859 
L 64.885648 264.085834 
L 65.179356 266.224817 
L 65.25806 268.382435 
L 65.120973 270.537132 
L 64.769465 272.667379 
L 64.207048 274.751893 
L 63.439341 276.769846 
L 62.474014 278.701077 
L 61.320712 280.526291 
L 59.990958 282.227252 
L 58.498038 283.786963 
L 56.856868 285.189844 
L 55.083846 286.421875 
L 53.196686 287.470749 
L 51.214243 288.325986 
L 49.156323 288.979041 
L 47.04349 289.423388 
L 44.896851 289.654589 
L 42.737855 289.670333 
L 40.588073 289.470463 
L 38.468984 289.056976 
L 36.40176 288.434004 
L 34.407055 287.60777 
L 32.504798 286.58653 
L 30.713997 285.380487 
L 29.052542 284.00169 
L 27.537034 282.463917 
L 26.182615 280.782531 
L 25.002817 278.974331 
L 24.009428 277.057383 
L 23.212373 275.05084 
L 22.619615 272.97475 
L 22.237077 270.849856 
L 22.06858 268.697388 
L 22.115809 266.538851 
L 22.378292 264.395813 
L 22.853406 262.289684 
L 23.536403 260.241508 
L 24.420461 258.271749 
L 25.496745 256.400086 
L 26.754504 254.64522 
L 28.181169 253.024684 
L 29.762488 251.55467 
L 31.48266 250.249864 
L 33.3245 249.123304 
L 35.269604 248.186244 
L 28.840936 250.525214 
" clip-path="url(#pe819b05a55)" style="fill: none; stroke: #000000; stroke-width: 2; stroke-linecap: round"/>
   </g>
   <g id="patch_15">
    <path d="M 27.61007 247.142172 
L 37.298539 247.448048 
L 30.071802 253.908255 
z
" clip-path="url(#pe819b05a55)"/>
   </g>
   <g id="line2d_6">
    <path d="M 384.667831 250.525214 
L 378.239162 248.186244 
L 380.184267 249.123304 
L 382.026106 250.249864 
L 383.746278 251.55467 
L 385.327597 253.024684 
L 386.754263 254.64522 
L 388.012021 256.400086 
L 389.088306 258.271749 
L 389.972363 260.241508 
L 390.655361 262.289684 
L 391.130474 264.395813 
L 391.392957 266.538851 
L 391.440186 268.697388 
L 391.27169 270.849856 
L 390.889152 272.97475 
L 390.296394 275.05084 
L 389.499339 277.057383 
L 388.505949 278.974331 
L 387.326151 280.782531 
L 385.971732 282.463917 
L 384.456225 284.00169 
L 382.79477 285.380487 
L 381.003968 286.58653 
L 379.101712 287.60777 
L 377.107007 288.434004 
L 375.039782 289.056976 
L 372.920693 289.470463 
L 370.770911 289.670333 
L 368.611915 289.654589 
L 366.465277 289.423388 
L 364.352443 288.979041 
L 362.294524 288.325986 
L 360.312081 287.470749 
L 358.42492 286.421875 
L 356.651898 285.189844 
L 355.010728 283.786963 
L 353.517808 282.227252 
L 352.188055 280.526291 
L 351.034753 278.701077 
L 350.069426 276.769846 
L 349.301719 274.751893 
L 348.739301 272.667379 
L 348.387793 270.537132 
L 348.250706 268.382435 
L 348.32941 266.224817 
L 348.623119 264.085834 
L 349.128898 261.986859 
L 349.841693 259.948861 
L 350.754383 257.992204 
" clip-path="url(#pe819b05a55)" style="fill: none; stroke: #000000; stroke-width: 2; stroke-linecap: round"/>
   </g>
   <g id="patch_16">
    <path d="M 383.436964 253.908255 
L 376.210227 247.448048 
L 385.898697 247.142172 
z
" clip-path="url(#pe819b05a55)"/>
   </g>
   <g id="text_1">
    <!-- Mumbai -->
    <g transform="translate(181.778797 81.441423) scale(0.125 -0.125)">
     <defs>
      <path id="DejaVuSans-4d" d="M 628 4666 
L 1569 4666 
L 2759 1491 
L 3956 4666 
L 4897 4666 
L 4897 0 
L 4281 0 
L 4281 4097 
L 3078 897 
L 2444 897 
L 1241 4097 
L 1241 0 
L 628 0 
L 628 4666 
z
" transform="scale(0.015625)"/>
      <path id="DejaVuSans-75" d="M 544 1381 
L 544 3500 
L 1119 3500 
L 1119 1403 
Q 1119 906 1312 657 
Q 1506 409 1894 409 
Q 2359 409 2629 706 
Q 2900 1003 2900 1516 
L 2900 3500 
L 3475 3500 
L 3475 0 
L 2900 0 
L 2900 538 
Q 2691 219 2414 64 
Q 2138 -91 1772 -91 
Q 1169 -91 856 284 
Q 544 659 544 1381 
z
M 1991 3584 
L 1991 3584 
z
" transform="scale(0.015625)"/>
      <path id="DejaVuSans-6d" d="M 3328 2828 
Q 3544 3216 3844 3400 
Q 4144 3584 4550 3584 
Q 5097 3584 5394 3201 
Q 5691 2819 5691 2113 
L 5691 0 
L 5113 0 
L 5113 2094 
Q 5113 2597 4934 2840 
Q 4756 3084 4391 3084 
Q 3944 3084 3684 2787 
Q 3425 2491 3425 1978 
L 3425 0 
L 2847 0 
L 2847 2094 
Q 2847 2600 2669 2842 
Q 2491 3084 2119 3084 
Q 1678 3084 1418 2786 
Q 1159 2488 1159 1978 
L 1159 0 
L 581 0 
L 581 3500 
L 1159 3500 
L 1159 2956 
Q 1356 3278 1631 3431 
Q 1906 3584 2284 3584 
Q 2666 3584 2933 3390 
Q 3200 3197 3328 2828 
z
" transform="scale(0.015625)"/>
      <path id="DejaVuSans-62" d="M 3116 1747 
Q 3116 2381 2855 2742 
Q 2594 3103 2138 3103 
Q 1681 3103 1420 2742 
Q 1159 2381 1159 1747 
Q 1159 1113 1420 752 
Q 1681 391 2138 391 
Q 2594 391 2855 752 
Q 3116 1113 3116 1747 
z
M 1159 2969 
Q 1341 3281 1617 3432 
Q 1894 3584 2278 3584 
Q 2916 3584 3314 3078 
Q 3713 2572 3713 1747 
Q 3713 922 3314 415 
Q 2916 -91 2278 -91 
Q 1894 -91 1617 61 
Q 1341 213 1159 525 
L 1159 0 
L 581 0 
L 581 4863 
L 1159 4863 
L 1159 2969 
z
" transform="scale(0.015625)"/>
      <path id="DejaVuSans-61" d="M 2194 1759 
Q 1497 1759 1228 1600 
Q 959 1441 959 1056 
Q 959 750 1161 570 
Q 1363 391 1709 391 
Q 2188 391 2477 730 
Q 2766 1069 2766 1631 
L 2766 1759 
L 2194 1759 
z
M 3341 1997 
L 3341 0 
L 2766 0 
L 2766 531 
Q 2569 213 2275 61 
Q 1981 -91 1556 -91 
Q 1019 -91 701 211 
Q 384 513 384 1019 
Q 384 1609 779 1909 
Q 1175 2209 1959 2209 
L 2766 2209 
L 2766 2266 
Q 2766 2663 2505 2880 
Q 2244 3097 1772 3097 
Q 1472 3097 1187 3025 
Q 903 2953 641 2809 
L 641 3341 
Q 956 3463 1253 3523 
Q 1550 3584 1831 3584 
Q 2591 3584 2966 3190 
Q 3341 2797 3341 1997 
z
" transform="scale(0.015625)"/>
      <path id="DejaVuSans-69" d="M 603 3500 
L 1178 3500 
L 1178 0 
L 603 0 
L 603 3500 
z
M 603 4863 
L 1178 4863 
L 1178 4134 
L 603 4134 
L 603 4863 
z
" transform="scale(0.015625)"/>
     </defs>
     <use xlink:href="#DejaVuSans-4d"/>
     <use xlink:href="#DejaVuSans-75" x="86.279297"/>
     <use xlink:href="#DejaVuSans-6d" x="149.658203"/>
     <use xlink:href="#DejaVuSans-62" x="247.070312"/>
     <use xlink:href="#DejaVuSans-61" x="310.546875"/>
     <use xlink:href="#DejaVuSans-69" x="371.826172"/>
    </g>
   </g>
   <g id="text_2">
    <!-- Bangalore -->
    <g transform="translate(31.042469 225.441423) scale(0.125 -0.125)">
     <defs>
      <path id="DejaVuSans-42" d="M 1259 2228 
L 1259 519 
L 2272 519 
Q 2781 519 3026 730 
Q 3272 941 3272 1375 
Q 3272 1813 3026 2020 
Q 2781 2228 2272 2228 
L 1259 2228 
z
M 1259 4147 
L 1259 2741 
L 2194 2741 
Q 2656 2741 2882 2914 
Q 3109 3088 3109 3444 
Q 3109 3797 2882 3972 
Q 2656 4147 2194 4147 
L 1259 4147 
z
M 628 4666 
L 2241 4666 
Q 2963 4666 3353 4366 
Q 3744 4066 3744 3513 
Q 3744 3084 3544 2831 
Q 3344 2578 2956 2516 
Q 3422 2416 3680 2098 
Q 3938 1781 3938 1306 
Q 3938 681 3513 340 
Q 3088 0 2303 0 
L 628 0 
L 628 4666 
z
" transform="scale(0.015625)"/>
      <path id="DejaVuSans-6e" d="M 3513 2113 
L 3513 0 
L 2938 0 
L 2938 2094 
Q 2938 2591 2744 2837 
Q 2550 3084 2163 3084 
Q 1697 3084 1428 2787 
Q 1159 2491 1159 1978 
L 1159 0 
L 581 0 
L 581 3500 
L 1159 3500 
L 1159 2956 
Q 1366 3272 1645 3428 
Q 1925 3584 2291 3584 
Q 2894 3584 3203 3211 
Q 3513 2838 3513 2113 
z
" transform="scale(0.015625)"/>
      <path id="DejaVuSans-67" d="M 2906 1791 
Q 2906 2416 2648 2759 
Q 2391 3103 1925 3103 
Q 1463 3103 1205 2759 
Q 947 2416 947 1791 
Q 947 1169 1205 825 
Q 1463 481 1925 481 
Q 2391 481 2648 825 
Q 2906 1169 2906 1791 
z
M 3481 434 
Q 3481 -459 3084 -895 
Q 2688 -1331 1869 -1331 
Q 1566 -1331 1297 -1286 
Q 1028 -1241 775 -1147 
L 775 -588 
Q 1028 -725 1275 -790 
Q 1522 -856 1778 -856 
Q 2344 -856 2625 -561 
Q 2906 -266 2906 331 
L 2906 616 
Q 2728 306 2450 153 
Q 2172 0 1784 0 
Q 1141 0 747 490 
Q 353 981 353 1791 
Q 353 2603 747 3093 
Q 1141 3584 1784 3584 
Q 2172 3584 2450 3431 
Q 2728 3278 2906 2969 
L 2906 3500 
L 3481 3500 
L 3481 434 
z
" transform="scale(0.015625)"/>
      <path id="DejaVuSans-6c" d="M 603 4863 
L 1178 4863 
L 1178 0 
L 603 0 
L 603 4863 
z
" transform="scale(0.015625)"/>
      <path id="DejaVuSans-6f" d="M 1959 3097 
Q 1497 3097 1228 2736 
Q 959 2375 959 1747 
Q 959 1119 1226 758 
Q 1494 397 1959 397 
Q 2419 397 2687 759 
Q 2956 1122 2956 1747 
Q 2956 2369 2687 2733 
Q 2419 3097 1959 3097 
z
M 1959 3584 
Q 2709 3584 3137 3096 
Q 3566 2609 3566 1747 
Q 3566 888 3137 398 
Q 2709 -91 1959 -91 
Q 1206 -91 779 398 
Q 353 888 353 1747 
Q 353 2609 779 3096 
Q 1206 3584 1959 3584 
z
" transform="scale(0.015625)"/>
      <path id="DejaVuSans-72" d="M 2631 2963 
Q 2534 3019 2420 3045 
Q 2306 3072 2169 3072 
Q 1681 3072 1420 2755 
Q 1159 2438 1159 1844 
L 1159 0 
L 581 0 
L 581 3500 
L 1159 3500 
L 1159 2956 
Q 1341 3275 1631 3429 
Q 1922 3584 2338 3584 
Q 2397 3584 2469 3576 
Q 2541 3569 2628 3553 
L 2631 2963 
z
" transform="scale(0.015625)"/>
      <path id="DejaVuSans-65" d="M 3597 1894 
L 3597 1613 
L 953 1613 
Q 991 1019 1311 708 
Q 1631 397 2203 397 
Q 2534 397 2845 478 
Q 3156 559 3463 722 
L 3463 178 
Q 3153 47 2828 -22 
Q 2503 -91 2169 -91 
Q 1331 -91 842 396 
Q 353 884 353 1716 
Q 353 2575 817 3079 
Q 1281 3584 2069 3584 
Q 2775 3584 3186 3129 
Q 3597 2675 3597 1894 
z
M 3022 2063 
Q 3016 2534 2758 2815 
Q 2500 3097 2075 3097 
Q 1594 3097 1305 2825 
Q 1016 2553 972 2059 
L 3022 2063 
z
" transform="scale(0.015625)"/>
     </defs>
     <use xlink:href="#DejaVuSans-42"/>
     <use xlink:href="#DejaVuSans-61" x="68.603516"/>
     <use xlink:href="#DejaVuSans-6e" x="129.882812"/>
     <use xlink:href="#DejaVuSans-67" x="193.261719"/>
     <use xlink:href="#DejaVuSans-61" x="256.738281"/>
     <use xlink:href="#DejaVuSans-6c" x="318.017578"/>
     <use xlink:href="#DejaVuSans-6f" x="345.800781"/>
     <use xlink:href="#DejaVuSans-72" x="406.982422"/>
     <use xlink:href="#DejaVuSans-65" x="445.845703"/>
    </g>
   </g>
   <g id="text_3">
    <!-- Chennai -->
    <g transform="translate(325.095204 225.441423) scale(0.125 -0.125)">
     <defs>
      <path id="DejaVuSans-43" d="M 4122 4306 
L 4122 3641 
Q 3803 3938 3442 4084 
Q 3081 4231 2675 4231 
Q 1875 4231 1450 3742 
Q 1025 3253 1025 2328 
Q 1025 1406 1450 917 
Q 1875 428 2675 428 
Q 3081 428 3442 575 
Q 3803 722 4122 1019 
L 4122 359 
Q 3791 134 3420 21 
Q 3050 -91 2638 -91 
Q 1578 -91 968 557 
Q 359 1206 359 2328 
Q 359 3453 968 4101 
Q 1578 4750 2638 4750 
Q 3056 4750 3426 4639 
Q 3797 4528 4122 4306 
z
" transform="scale(0.015625)"/>
      <path id="DejaVuSans-68" d="M 3513 2113 
L 3513 0 
L 2938 0 
L 2938 2094 
Q 2938 2591 2744 2837 
Q 2550 3084 2163 3084 
Q 1697 3084 1428 2787 
Q 1159 2491 1159 1978 
L 1159 0 
L 581 0 
L 581 4863 
L 1159 4863 
L 1159 2956 
Q 1366 3272 1645 3428 
Q 1925 3584 2291 3584 
Q 2894 3584 3203 3211 
Q 3513 2838 3513 2113 
z
" transform="scale(0.015625)"/>
     </defs>
     <use xlink:href="#DejaVuSans-43"/>
     <use xlink:href="#DejaVuSans-68" x="69.824219"/>
     <use xlink:href="#DejaVuSans-65" x="133.203125"/>
     <use xlink:href="#DejaVuSans-6e" x="194.726562"/>
     <use xlink:href="#DejaVuSans-6e" x="258.105469"/>
     <use xlink:href="#DejaVuSans-61" x="321.484375"/>
     <use xlink:href="#DejaVuSans-69" x="382.763672"/>
    </g>
   </g>
   <g id="text_4">
    <!-- 0.4 -->
    <g transform="translate(124.81493 143.792595) scale(0.125 -0.125)">
     <defs>
      <path id="DejaVuSans-30" d="M 2034 4250 
Q 1547 4250 1301 3770 
Q 1056 3291 1056 2328 
Q 1056 1369 1301 889 
Q 1547 409 2034 409 
Q 2525 409 2770 889 
Q 3016 1369 3016 2328 
Q 3016 3291 2770 3770 
Q 2525 4250 2034 4250 
z
M 2034 4750 
Q 2819 4750 3233 4129 
Q 3647 3509 3647 2328 
Q 3647 1150 3233 529 
Q 2819 -91 2034 -91 
Q 1250 -91 836 529 
Q 422 1150 422 2328 
Q 422 3509 836 4129 
Q 1250 4750 2034 4750 
z
" transform="scale(0.015625)"/>
      <path id="DejaVuSans-2e" d="M 684 794 
L 1344 794 
L 1344 0 
L 684 0 
L 684 794 
z
" transform="scale(0.015625)"/>
      <path id="DejaVuSans-34" d="M 2419 4116 
L 825 1625 
L 2419 1625 
L 2419 4116 
z
M 2253 4666 
L 3047 4666 
L 3047 1625 
L 3713 1625 
L 3713 1100 
L 3047 1100 
L 3047 0 
L 2419 0 
L 2419 1100 
L 313 1100 
L 313 1709 
L 2253 4666 
z
" transform="scale(0.015625)"/>
     </defs>
     <use xlink:href="#DejaVuSans-30"/>
     <use xlink:href="#DejaVuSans-2e" x="63.623047"/>
     <use xlink:href="#DejaVuSans-34" x="95.410156"/>
    </g>
   </g>
   <g id="text_5">
    <!-- 0.4 -->
    <g transform="translate(268.81493 143.792595) scale(0.125 -0.125)">
     <use xlink:href="#DejaVuSans-30"/>
     <use xlink:href="#DejaVuSans-2e" x="63.623047"/>
     <use xlink:href="#DejaVuSans-34" x="95.410156"/>
    </g>
   </g>
   <g id="text_6">
    <!-- 0.2 -->
    <g transform="translate(195.959127 13.098047) scale(0.125 -0.125)">
     <defs>
      <path id="DejaVuSans-32" d="M 1228 531 
L 3431 531 
L 3431 0 
L 469 0 
L 469 531 
Q 828 903 1448 1529 
Q 2069 2156 2228 2338 
Q 2531 2678 2651 2914 
Q 2772 3150 2772 3378 
Q 2772 3750 2511 3984 
Q 2250 4219 1831 4219 
Q 1534 4219 1204 4116 
Q 875 4013 500 3803 
L 500 4441 
Q 881 4594 1212 4672 
Q 1544 4750 1819 4750 
Q 2544 4750 2975 4387 
Q 3406 4025 3406 3419 
Q 3406 3131 3298 2873 
Q 3191 2616 2906 2266 
Q 2828 2175 2409 1742 
Q 1991 1309 1228 531 
z
" transform="scale(0.015625)"/>
     </defs>
     <use xlink:href="#DejaVuSans-30"/>
     <use xlink:href="#DejaVuSans-2e" x="63.623047"/>
     <use xlink:href="#DejaVuSans-32" x="95.410156"/>
    </g>
   </g>
   <g id="text_7">
    <!-- 0.3 -->
    <g transform="translate(80.675477 109.592595) scale(0.125 -0.125)">
     <defs>
      <path id="DejaVuSans-33" d="M 2597 2516 
Q 3050 2419 3304 2112 
Q 3559 1806 3559 1356 
Q 3559 666 3084 287 
Q 2609 -91 1734 -91 
Q 1441 -91 1130 -33 
Q 819 25 488 141 
L 488 750 
Q 750 597 1062 519 
Q 1375 441 1716 441 
Q 2309 441 2620 675 
Q 2931 909 2931 1356 
Q 2931 1769 2642 2001 
Q 2353 2234 1838 2234 
L 1294 2234 
L 1294 2753 
L 1863 2753 
Q 2328 2753 2575 2939 
Q 2822 3125 2822 3475 
Q 2822 3834 2567 4026 
Q 2313 4219 1838 4219 
Q 1578 4219 1281 4162 
Q 984 4106 628 3988 
L 628 4550 
Q 988 4650 1302 4700 
Q 1616 4750 1894 4750 
Q 2613 4750 3031 4423 
Q 3450 4097 3450 3541 
Q 3450 3153 3228 2886 
Q 3006 2619 2597 2516 
z
" transform="scale(0.015625)"/>
     </defs>
     <use xlink:href="#DejaVuSans-30"/>
     <use xlink:href="#DejaVuSans-2e" x="63.623047"/>
     <use xlink:href="#DejaVuSans-33" x="95.410156"/>
    </g>
   </g>
   <g id="text_8">
    <!-- 0.4 -->
    <g transform="translate(196.81493 235.090251) scale(0.125 -0.125)">
     <use xlink:href="#DejaVuSans-30"/>
     <use xlink:href="#DejaVuSans-2e" x="63.623047"/>
     <use xlink:href="#DejaVuSans-34" x="95.410156"/>
    </g>
   </g>
   <g id="text_9">
    <!-- 0.3 -->
    <g transform="translate(14.528148 300.705817) scale(0.125 -0.125)">
     <use xlink:href="#DejaVuSans-30"/>
     <use xlink:href="#DejaVuSans-2e" x="63.623047"/>
     <use xlink:href="#DejaVuSans-33" x="95.410156"/>
    </g>
   </g>
   <g id="text_10">
    <!-- 0.1 -->
    <g transform="translate(377.107007 301.532051) scale(0.125 -0.125)">
     <defs>
      <path id="DejaVuSans-31" d="M 794 531 
L 1825 531 
L 1825 4091 
L 703 3866 
L 703 4441 
L 1819 4666 
L 2450 4666 
L 2450 531 
L 3481 531 
L 3481 0 
L 794 0 
L 794 531 
z
" transform="scale(0.015625)"/>
     </defs>
     <use xlink:href="#DejaVuSans-30"/>
     <use xlink:href="#DejaVuSans-2e" x="63.623047"/>
     <use xlink:href="#DejaVuSans-31" x="95.410156"/>
    </g>
   </g>
   <g id="text_11">
    <!-- 0.7 -->
    <g transform="translate(312.954383 109.592595) scale(0.125 -0.125)">
     <defs>
      <path id="DejaVuSans-37" d="M 525 4666 
L 3525 4666 
L 3525 4397 
L 1831 0 
L 1172 0 
L 2766 4134 
L 525 4134 
L 525 4666 
z
" transform="scale(0.015625)"/>
     </defs>
     <use xlink:href="#DejaVuSans-30"/>
     <use xlink:href="#DejaVuSans-2e" x="63.623047"/>
     <use xlink:href="#DejaVuSans-37" x="95.410156"/>
    </g>
   </g>
   <g id="text_12">
    <!-- 0.2 -->
    <g transform="translate(196.81493 272.400511) scale(0.125 -0.125)">
     <use xlink:href="#DejaVuSans-30"/>
     <use xlink:href="#DejaVuSans-2e" x="63.623047"/>
     <use xlink:href="#DejaVuSans-32" x="95.410156"/>
    </g>
   </g>
  </g>
 </g>
 <defs>
  <clipPath id="pe819b05a55">
   <rect x="3.6" y="5.502373" width="406.308766" height="297.699768"/>
  </clipPath>
 </defs>
</svg>
