<?xml version="1.0" encoding="utf-8" standalone="no"?>
<!DOCTYPE svg PUBLIC "-//W3C//DTD SVG 1.1//EN"
  "http://www.w3.org/Graphics/SVG/1.1/DTD/svg11.dtd">
<svg xmlns:xlink="http://www.w3.org/1999/xlink" width="680.4pt" height="86.4pt" viewBox="0 0 680.4 86.4" xmlns="http://www.w3.org/2000/svg" version="1.1">
 <metadata>
  <rdf:RDF xmlns:dc="http://purl.org/dc/elements/1.1/" xmlns:cc="http://creativecommons.org/ns#" xmlns:rdf="http://www.w3.org/1999/02/22-rdf-syntax-ns#">
   <cc:Work>
    <dc:type rdf:resource="http://purl.org/dc/dcmitype/StillImage"/>
    <dc:date>2023-09-09T14:04:12.591526</dc:date>
    <dc:format>image/svg+xml</dc:format>
    <dc:creator>
     <cc:Agent>
      <dc:title>Matplotlib v3.7.2, https://matplotlib.org/</dc:title>
     </cc:Agent>
    </dc:creator>
   </cc:Work>
  </rdf:RDF>
 </metadata>
 <defs>
  <style type="text/css">*{stroke-linejoin: round; stroke-linecap: butt}</style>
 </defs>
 <g id="figure_1">
  <g id="patch_1">
   <path d="M 0 86.4 
L 680.4 86.4 
L 680.4 -0 
L 0 -0 
z
" style="fill: #ffffff"/>
  </g>
  <g id="axes_1">
   <g id="patch_2">
    <path d="M 70.2 79.2 
C 79.747312 79.2 88.904875 75.406813 95.655844 68.655844 
C 102.406813 61.904875 106.2 52.747312 106.2 43.2 
C 106.2 33.652688 102.406813 24.495125 95.655844 17.744156 
C 88.904875 10.993187 79.747312 7.2 70.2 7.2 
C 60.652688 7.2 51.495125 10.993187 44.744156 17.744156 
C 37.993187 24.495125 34.2 33.652688 34.2 43.2 
C 34.2 52.747312 37.993187 61.904875 44.744156 68.655844 
C 51.495125 75.406813 60.652688 79.2 70.2 79.2 
z
" clip-path="url(#pd5ba2a736a)" style="fill: #add8e6; stroke: #000000; stroke-width: 2; stroke-linejoin: miter"/>
   </g>
   <g id="patch_3">
    <path d="M 178.2 79.2 
C 187.747312 79.2 196.904875 75.406813 203.655844 68.655844 
C 210.406813 61.904875 214.2 52.747312 214.2 43.2 
C 214.2 33.652688 210.406813 24.495125 203.655844 17.744156 
C 196.904875 10.993187 187.747312 7.2 178.2 7.2 
C 168.652688 7.2 159.495125 10.993187 152.744156 17.744156 
C 145.993187 24.495125 142.2 33.652688 142.2 43.2 
C 142.2 52.747312 145.993187 61.904875 152.744156 68.655844 
C 159.495125 75.406813 168.652688 79.2 178.2 79.2 
z
" clip-path="url(#pd5ba2a736a)" style="fill: #add8e6; stroke: #000000; stroke-width: 2; stroke-linejoin: miter"/>
   </g>
   <g id="patch_4">
    <path d="M 286.2 79.2 
C 295.747312 79.2 304.904875 75.406813 311.655844 68.655844 
C 318.406813 61.904875 322.2 52.747312 322.2 43.2 
C 322.2 33.652688 318.406813 24.495125 311.655844 17.744156 
C 304.904875 10.993187 295.747312 7.2 286.2 7.2 
C 276.652688 7.2 267.495125 10.993187 260.744156 17.744156 
C 253.993187 24.495125 250.2 33.652688 250.2 43.2 
C 250.2 52.747312 253.993187 61.904875 260.744156 68.655844 
C 267.495125 75.406813 276.652688 79.2 286.2 79.2 
z
" clip-path="url(#pd5ba2a736a)" style="fill: #add8e6; stroke: #000000; stroke-width: 2; stroke-linejoin: miter"/>
   </g>
   <g id="patch_5">
    <path d="M 394.2 79.2 
C 403.747312 79.2 412.904875 75.406813 419.655844 68.655844 
C 426.406813 61.904875 430.2 52.747312 430.2 43.2 
C 430.2 33.652688 426.406813 24.495125 419.655844 17.744156 
C 412.904875 10.993187 403.747312 7.2 394.2 7.2 
C 384.652688 7.2 375.495125 10.993187 368.744156 17.744156 
C 361.993187 24.495125 358.2 33.652688 358.2 43.2 
C 358.2 52.747312 361.993187 61.904875 368.744156 68.655844 
C 375.495125 75.406813 384.652688 79.2 394.2 79.2 
z
" clip-path="url(#pd5ba2a736a)" style="fill: #add8e6; stroke: #000000; stroke-width: 2; stroke-linejoin: miter"/>
   </g>
   <g id="patch_6">
    <path d="M 502.2 79.2 
C 511.747312 79.2 520.904875 75.406813 527.655844 68.655844 
C 534.406813 61.904875 538.2 52.747312 538.2 43.2 
C 538.2 33.652688 534.406813 24.495125 527.655844 17.744156 
C 520.904875 10.993187 511.747312 7.2 502.2 7.2 
C 492.652688 7.2 483.495125 10.993187 476.744156 17.744156 
C 469.993187 24.495125 466.2 33.652688 466.2 43.2 
C 466.2 52.747312 469.993187 61.904875 476.744156 68.655844 
C 483.495125 75.406813 492.652688 79.2 502.2 79.2 
z
" clip-path="url(#pd5ba2a736a)" style="fill: #add8e6; stroke: #000000; stroke-width: 2; stroke-linejoin: miter"/>
   </g>
   <g id="patch_7">
    <path d="M 610.2 79.2 
C 619.747312 79.2 628.904875 75.406813 635.655844 68.655844 
C 642.406813 61.904875 646.2 52.747312 646.2 43.2 
C 646.2 33.652688 642.406813 24.495125 635.655844 17.744156 
C 628.904875 10.993187 619.747312 7.2 610.2 7.2 
C 600.652688 7.2 591.495125 10.993187 584.744156 17.744156 
C 577.993187 24.495125 574.2 33.652688 574.2 43.2 
C 574.2 52.747312 577.993187 61.904875 584.744156 68.655844 
C 591.495125 75.406813 600.652688 79.2 610.2 79.2 
z
" clip-path="url(#pd5ba2a736a)" style="fill: #add8e6; stroke: #000000; stroke-width: 2; stroke-linejoin: miter"/>
   </g>
   <g id="line2d_1">
    <path d="M 106.2 43.2 
L 124.2 43.2 
L 133.2 43.2 
" clip-path="url(#pd5ba2a736a)" style="fill: none; stroke: #000000; stroke-width: 2; stroke-linecap: round"/>
   </g>
   <g id="patch_8">
    <path d="M 133.2 40.5 
L 142.2 43.2 
L 133.2 45.9 
z
" clip-path="url(#pd5ba2a736a)"/>
   </g>
   <g id="line2d_2">
    <path d="M 214.2 43.2 
L 232.2 43.2 
L 241.2 43.2 
" clip-path="url(#pd5ba2a736a)" style="fill: none; stroke: #000000; stroke-width: 2; stroke-linecap: round"/>
   </g>
   <g id="patch_9">
    <path d="M 241.2 40.5 
L 250.2 43.2 
L 241.2 45.9 
z
" clip-path="url(#pd5ba2a736a)"/>
   </g>
   <g id="line2d_3">
    <path d="M 322.2 43.2 
L 340.2 43.2 
L 349.2 43.2 
" clip-path="url(#pd5ba2a736a)" style="fill: none; stroke: #000000; stroke-width: 2; stroke-linecap: round"/>
   </g>
   <g id="patch_10">
    <path d="M 349.2 40.5 
L 358.2 43.2 
L 349.2 45.9 
z
" clip-path="url(#pd5ba2a736a)"/>
   </g>
   <g id="line2d_4">
    <path d="M 430.2 43.2 
L 448.2 43.2 
L 457.2 43.2 
" clip-path="url(#pd5ba2a736a)" style="fill: none; stroke: #000000; stroke-width: 2; stroke-linecap: round"/>
   </g>
   <g id="patch_11">
    <path d="M 457.2 40.5 
L 466.2 43.2 
L 457.2 45.9 
z
" clip-path="url(#pd5ba2a736a)"/>
   </g>
   <g id="line2d_5">
    <path d="M 538.2 43.2 
L 556.2 43.2 
L 565.2 43.2 
" clip-path="url(#pd5ba2a736a)" style="fill: none; stroke: #000000; stroke-width: 2; stroke-linecap: round"/>
   </g>
   <g id="patch_12">
    <path d="M 565.2 40.5 
L 574.2 43.2 
L 565.2 45.9 
z
" clip-path="url(#pd5ba2a736a)"/>
   </g>
   <g id="text_1">
    <!-- Mumbai -->
    <g transform="translate(45.224414 46.649219) scale(0.125 -0.125)">
     <defs>
      <path id="DejaVuSans-4d" d="M 628 4666 
L 1569 4666 
L 2759 1491 
L 3956 4666 
L 4897 4666 
L 4897 0 
L 4281 0 
L 4281 4097 
L 3078 897 
L 2444 897 
L 1241 4097 
L 1241 0 
L 628 0 
L 628 4666 
z
" transform="scale(0.015625)"/>
      <path id="DejaVuSans-75" d="M 544 1381 
L 544 3500 
L 1119 3500 
L 1119 1403 
Q 1119 906 1312 657 
Q 1506 409 1894 409 
Q 2359 409 2629 706 
Q 2900 1003 2900 1516 
L 2900 3500 
L 3475 3500 
L 3475 0 
L 2900 0 
L 2900 538 
Q 2691 219 2414 64 
Q 2138 -91 1772 -91 
Q 1169 -91 856 284 
Q 544 659 544 1381 
z
M 1991 3584 
L 1991 3584 
z
" transform="scale(0.015625)"/>
      <path id="DejaVuSans-6d" d="M 3328 2828 
Q 3544 3216 3844 3400 
Q 4144 3584 4550 3584 
Q 5097 3584 5394 3201 
Q 5691 2819 5691 2113 
L 5691 0 
L 5113 0 
L 5113 2094 
Q 5113 2597 4934 2840 
Q 4756 3084 4391 3084 
Q 3944 3084 3684 2787 
Q 3425 2491 3425 1978 
L 3425 0 
L 2847 0 
L 2847 2094 
Q 2847 2600 2669 2842 
Q 2491 3084 2119 3084 
Q 1678 3084 1418 2786 
Q 1159 2488 1159 1978 
L 1159 0 
L 581 0 
L 581 3500 
L 1159 3500 
L 1159 2956 
Q 1356 3278 1631 3431 
Q 1906 3584 2284 3584 
Q 2666 3584 2933 3390 
Q 3200 3197 3328 2828 
z
" transform="scale(0.015625)"/>
      <path id="DejaVuSans-62" d="M 3116 1747 
Q 3116 2381 2855 2742 
Q 2594 3103 2138 3103 
Q 1681 3103 1420 2742 
Q 1159 2381 1159 1747 
Q 1159 1113 1420 752 
Q 1681 391 2138 391 
Q 2594 391 2855 752 
Q 3116 1113 3116 1747 
z
M 1159 2969 
Q 1341 3281 1617 3432 
Q 1894 3584 2278 3584 
Q 2916 3584 3314 3078 
Q 3713 2572 3713 1747 
Q 3713 922 3314 415 
Q 2916 -91 2278 -91 
Q 1894 -91 1617 61 
Q 1341 213 1159 525 
L 1159 0 
L 581 0 
L 581 4863 
L 1159 4863 
L 1159 2969 
z
" transform="scale(0.015625)"/>
      <path id="DejaVuSans-61" d="M 2194 1759 
Q 1497 1759 1228 1600 
Q 959 1441 959 1056 
Q 959 750 1161 570 
Q 1363 391 1709 391 
Q 2188 391 2477 730 
Q 2766 1069 2766 1631 
L 2766 1759 
L 2194 1759 
z
M 3341 1997 
L 3341 0 
L 2766 0 
L 2766 531 
Q 2569 213 2275 61 
Q 1981 -91 1556 -91 
Q 1019 -91 701 211 
Q 384 513 384 1019 
Q 384 1609 779 1909 
Q 1175 2209 1959 2209 
L 2766 2209 
L 2766 2266 
Q 2766 2663 2505 2880 
Q 2244 3097 1772 3097 
Q 1472 3097 1187 3025 
Q 903 2953 641 2809 
L 641 3341 
Q 956 3463 1253 3523 
Q 1550 3584 1831 3584 
Q 2591 3584 2966 3190 
Q 3341 2797 3341 1997 
z
" transform="scale(0.015625)"/>
      <path id="DejaVuSans-69" d="M 603 3500 
L 1178 3500 
L 1178 0 
L 603 0 
L 603 3500 
z
M 603 4863 
L 1178 4863 
L 1178 4134 
L 603 4134 
L 603 4863 
z
" transform="scale(0.015625)"/>
     </defs>
     <use xlink:href="#DejaVuSans-4d"/>
     <use xlink:href="#DejaVuSans-75" x="86.279297"/>
     <use xlink:href="#DejaVuSans-6d" x="149.658203"/>
     <use xlink:href="#DejaVuSans-62" x="247.070312"/>
     <use xlink:href="#DejaVuSans-61" x="310.546875"/>
     <use xlink:href="#DejaVuSans-69" x="371.826172"/>
    </g>
   </g>
   <g id="text_2">
    <!-- Chennai -->
    <g transform="translate(152.54082 46.649219) scale(0.125 -0.125)">
     <defs>
      <path id="DejaVuSans-43" d="M 4122 4306 
L 4122 3641 
Q 3803 3938 3442 4084 
Q 3081 4231 2675 4231 
Q 1875 4231 1450 3742 
Q 1025 3253 1025 2328 
Q 1025 1406 1450 917 
Q 1875 428 2675 428 
Q 3081 428 3442 575 
Q 3803 722 4122 1019 
L 4122 359 
Q 3791 134 3420 21 
Q 3050 -91 2638 -91 
Q 1578 -91 968 557 
Q 359 1206 359 2328 
Q 359 3453 968 4101 
Q 1578 4750 2638 4750 
Q 3056 4750 3426 4639 
Q 3797 4528 4122 4306 
z
" transform="scale(0.015625)"/>
      <path id="DejaVuSans-68" d="M 3513 2113 
L 3513 0 
L 2938 0 
L 2938 2094 
Q 2938 2591 2744 2837 
Q 2550 3084 2163 3084 
Q 1697 3084 1428 2787 
Q 1159 2491 1159 1978 
L 1159 0 
L 581 0 
L 581 4863 
L 1159 4863 
L 1159 2956 
Q 1366 3272 1645 3428 
Q 1925 3584 2291 3584 
Q 2894 3584 3203 3211 
Q 3513 2838 3513 2113 
z
" transform="scale(0.015625)"/>
      <path id="DejaVuSans-65" d="M 3597 1894 
L 3597 1613 
L 953 1613 
Q 991 1019 1311 708 
Q 1631 397 2203 397 
Q 2534 397 2845 478 
Q 3156 559 3463 722 
L 3463 178 
Q 3153 47 2828 -22 
Q 2503 -91 2169 -91 
Q 1331 -91 842 396 
Q 353 884 353 1716 
Q 353 2575 817 3079 
Q 1281 3584 2069 3584 
Q 2775 3584 3186 3129 
Q 3597 2675 3597 1894 
z
M 3022 2063 
Q 3016 2534 2758 2815 
Q 2500 3097 2075 3097 
Q 1594 3097 1305 2825 
Q 1016 2553 972 2059 
L 3022 2063 
z
" transform="scale(0.015625)"/>
      <path id="DejaVuSans-6e" d="M 3513 2113 
L 3513 0 
L 2938 0 
L 2938 2094 
Q 2938 2591 2744 2837 
Q 2550 3084 2163 3084 
Q 1697 3084 1428 2787 
Q 1159 2491 1159 1978 
L 1159 0 
L 581 0 
L 581 3500 
L 1159 3500 
L 1159 2956 
Q 1366 3272 1645 3428 
Q 1925 3584 2291 3584 
Q 2894 3584 3203 3211 
Q 3513 2838 3513 2113 
z
" transform="scale(0.015625)"/>
     </defs>
     <use xlink:href="#DejaVuSans-43"/>
     <use xlink:href="#DejaVuSans-68" x="69.824219"/>
     <use xlink:href="#DejaVuSans-65" x="133.203125"/>
     <use xlink:href="#DejaVuSans-6e" x="194.726562"/>
     <use xlink:href="#DejaVuSans-6e" x="258.105469"/>
     <use xlink:href="#DejaVuSans-61" x="321.484375"/>
     <use xlink:href="#DejaVuSans-69" x="382.763672"/>
    </g>
   </g>
   <g id="text_3">
    <!-- Mumbai -->
    <g transform="translate(261.224414 46.649219) scale(0.125 -0.125)">
     <use xlink:href="#DejaVuSans-4d"/>
     <use xlink:href="#DejaVuSans-75" x="86.279297"/>
     <use xlink:href="#DejaVuSans-6d" x="149.658203"/>
     <use xlink:href="#DejaVuSans-62" x="247.070312"/>
     <use xlink:href="#DejaVuSans-61" x="310.546875"/>
     <use xlink:href="#DejaVuSans-69" x="371.826172"/>
    </g>
   </g>
   <g id="text_4">
    <!-- Chennai -->
    <g transform="translate(368.54082 46.649219) scale(0.125 -0.125)">
     <use xlink:href="#DejaVuSans-43"/>
     <use xlink:href="#DejaVuSans-68" x="69.824219"/>
     <use xlink:href="#DejaVuSans-65" x="133.203125"/>
     <use xlink:href="#DejaVuSans-6e" x="194.726562"/>
     <use xlink:href="#DejaVuSans-6e" x="258.105469"/>
     <use xlink:href="#DejaVuSans-61" x="321.484375"/>
     <use xlink:href="#DejaVuSans-69" x="382.763672"/>
    </g>
   </g>
   <g id="text_5">
    <!-- Mumbai -->
    <g transform="translate(477.224414 46.649219) scale(0.125 -0.125)">
     <use xlink:href="#DejaVuSans-4d"/>
     <use xlink:href="#DejaVuSans-75" x="86.279297"/>
     <use xlink:href="#DejaVuSans-6d" x="149.658203"/>
     <use xlink:href="#DejaVuSans-62" x="247.070312"/>
     <use xlink:href="#DejaVuSans-61" x="310.546875"/>
     <use xlink:href="#DejaVuSans-69" x="371.826172"/>
    </g>
   </g>
   <g id="text_6">
    <!-- Mumbai -->
    <g transform="translate(585.224414 46.649219) scale(0.125 -0.125)">
     <use xlink:href="#DejaVuSans-4d"/>
     <use xlink:href="#DejaVuSans-75" x="86.279297"/>
     <use xlink:href="#DejaVuSans-6d" x="149.658203"/>
     <use xlink:href="#DejaVuSans-62" x="247.070312"/>
     <use xlink:href="#DejaVuSans-61" x="310.546875"/>
     <use xlink:href="#DejaVuSans-69" x="371.826172"/>
    </g>
   </g>
  </g>
 </g>
 <defs>
  <clipPath id="pd5ba2a736a">
   <rect x="3.6" y="3.6" width="673.2" height="79.2"/>
  </clipPath>
 </defs>
</svg>
