<?xml version="1.0" encoding="utf-8" standalone="no"?>
<!DOCTYPE svg PUBLIC "-//W3C//DTD SVG 1.1//EN"
  "http://www.w3.org/Graphics/SVG/1.1/DTD/svg11.dtd">
<svg xmlns:xlink="http://www.w3.org/1999/xlink" width="446.76pt" height="66.6pt" viewBox="0 0 446.76 66.6" xmlns="http://www.w3.org/2000/svg" version="1.1">
 <metadata>
  <rdf:RDF xmlns:dc="http://purl.org/dc/elements/1.1/" xmlns:cc="http://creativecommons.org/ns#" xmlns:rdf="http://www.w3.org/1999/02/22-rdf-syntax-ns#">
   <cc:Work>
    <dc:type rdf:resource="http://purl.org/dc/dcmitype/StillImage"/>
    <dc:date>2023-11-01T18:21:57.399683</dc:date>
    <dc:format>image/svg+xml</dc:format>
    <dc:creator>
     <cc:Agent>
      <dc:title>Matplotlib v3.7.2, https://matplotlib.org/</dc:title>
     </cc:Agent>
    </dc:creator>
   </cc:Work>
  </rdf:RDF>
 </metadata>
 <defs>
  <style type="text/css">*{stroke-linejoin: round; stroke-linecap: butt}</style>
 </defs>
 <g id="figure_1">
  <g id="patch_1">
   <path d="M -0 66.6 
L 446.76 66.6 
L 446.76 0 
L -0 0 
z
" style="fill: #ffffff"/>
  </g>
  <g id="axes_1">
   <g id="patch_2">
    <path d="M 50.58 60.3 
C 57.740484 60.3 64.608657 57.45511 69.671883 52.391883 
C 74.73511 47.328657 77.58 40.460484 77.58 33.3 
C 77.58 26.139516 74.73511 19.271343 69.671883 14.208117 
C 64.608657 9.14489 57.740484 6.3 50.58 6.3 
C 43.419516 6.3 36.551343 9.14489 31.488117 14.208117 
C 26.42489 19.271343 23.58 26.139516 23.58 33.3 
C 23.58 40.460484 26.42489 47.328657 31.488117 52.391883 
C 36.551343 57.45511 43.419516 60.3 50.58 60.3 
z
" clip-path="url(#p5f369dff34)" style="fill: #add8e6; stroke: #000000; stroke-width: 2; stroke-linejoin: miter"/>
   </g>
   <g id="patch_3">
    <path d="M 158.58 60.3 
C 165.740484 60.3 172.608657 57.45511 177.671883 52.391883 
C 182.73511 47.328657 185.58 40.460484 185.58 33.3 
C 185.58 26.139516 182.73511 19.271343 177.671883 14.208117 
C 172.608657 9.14489 165.740484 6.3 158.58 6.3 
C 151.419516 6.3 144.551343 9.14489 139.488117 14.208117 
C 134.42489 19.271343 131.58 26.139516 131.58 33.3 
C 131.58 40.460484 134.42489 47.328657 139.488117 52.391883 
C 144.551343 57.45511 151.419516 60.3 158.58 60.3 
z
" clip-path="url(#p5f369dff34)" style="fill: #add8e6; stroke: #000000; stroke-width: 2; stroke-linejoin: miter"/>
   </g>
   <g id="patch_4">
    <path d="M 266.58 60.3 
C 273.740484 60.3 280.608657 57.45511 285.671883 52.391883 
C 290.73511 47.328657 293.58 40.460484 293.58 33.3 
C 293.58 26.139516 290.73511 19.271343 285.671883 14.208117 
C 280.608657 9.14489 273.740484 6.3 266.58 6.3 
C 259.419516 6.3 252.551343 9.14489 247.488117 14.208117 
C 242.42489 19.271343 239.58 26.139516 239.58 33.3 
C 239.58 40.460484 242.42489 47.328657 247.488117 52.391883 
C 252.551343 57.45511 259.419516 60.3 266.58 60.3 
z
" clip-path="url(#p5f369dff34)" style="fill: #add8e6; stroke: #000000; stroke-width: 2; stroke-linejoin: miter"/>
   </g>
   <g id="patch_5">
    <path d="M 297.54 35.1 
C 298.017366 35.1 298.475244 34.910341 298.812792 34.572792 
C 299.150341 34.235244 299.34 33.777366 299.34 33.3 
C 299.34 32.822634 299.150341 32.364756 298.812792 32.027208 
C 298.475244 31.689659 298.017366 31.5 297.54 31.5 
C 297.062634 31.5 296.604756 31.689659 296.267208 32.027208 
C 295.929659 32.364756 295.74 32.822634 295.74 33.3 
C 295.74 33.777366 295.929659 34.235244 296.267208 34.572792 
C 296.604756 34.910341 297.062634 35.1 297.54 35.1 
z
" clip-path="url(#p5f369dff34)" style="stroke: #000000; stroke-width: 2; stroke-linejoin: miter"/>
   </g>
   <g id="patch_6">
    <path d="M 304.74 35.1 
C 305.217366 35.1 305.675244 34.910341 306.012792 34.572792 
C 306.350341 34.235244 306.54 33.777366 306.54 33.3 
C 306.54 32.822634 306.350341 32.364756 306.012792 32.027208 
C 305.675244 31.689659 305.217366 31.5 304.74 31.5 
C 304.262634 31.5 303.804756 31.689659 303.467208 32.027208 
C 303.129659 32.364756 302.94 32.822634 302.94 33.3 
C 302.94 33.777366 303.129659 34.235244 303.467208 34.572792 
C 303.804756 34.910341 304.262634 35.1 304.74 35.1 
z
" clip-path="url(#p5f369dff34)" style="stroke: #000000; stroke-width: 2; stroke-linejoin: miter"/>
   </g>
   <g id="patch_7">
    <path d="M 311.94 35.1 
C 312.417366 35.1 312.875244 34.910341 313.212792 34.572792 
C 313.550341 34.235244 313.74 33.777366 313.74 33.3 
C 313.74 32.822634 313.550341 32.364756 313.212792 32.027208 
C 312.875244 31.689659 312.417366 31.5 311.94 31.5 
C 311.462634 31.5 311.004756 31.689659 310.667208 32.027208 
C 310.329659 32.364756 310.14 32.822634 310.14 33.3 
C 310.14 33.777366 310.329659 34.235244 310.667208 34.572792 
C 311.004756 34.910341 311.462634 35.1 311.94 35.1 
z
" clip-path="url(#p5f369dff34)" style="stroke: #000000; stroke-width: 2; stroke-linejoin: miter"/>
   </g>
   <g id="patch_8">
    <path d="M 396.18 60.3 
C 403.340484 60.3 410.208657 57.45511 415.271883 52.391883 
C 420.33511 47.328657 423.18 40.460484 423.18 33.3 
C 423.18 26.139516 420.33511 19.271343 415.271883 14.208117 
C 410.208657 9.14489 403.340484 6.3 396.18 6.3 
C 389.019516 6.3 382.151343 9.14489 377.088117 14.208117 
C 372.02489 19.271343 369.18 26.139516 369.18 33.3 
C 369.18 40.460484 372.02489 47.328657 377.088117 52.391883 
C 382.151343 57.45511 389.019516 60.3 396.18 60.3 
z
" clip-path="url(#p5f369dff34)" style="fill: #add8e6; stroke: #000000; stroke-width: 2; stroke-linejoin: miter"/>
   </g>
   <g id="line2d_1">
    <path d="M 77.58 33.3 
L 104.58 33.3 
L 122.58 33.3 
" clip-path="url(#p5f369dff34)" style="fill: none; stroke: #000000; stroke-width: 2; stroke-linecap: round"/>
   </g>
   <g id="patch_9">
    <path d="M 122.58 30.6 
L 131.58 33.3 
L 122.58 36 
z
" clip-path="url(#p5f369dff34)"/>
   </g>
   <g id="line2d_2">
    <path d="M 185.58 33.3 
L 212.58 33.3 
L 230.58 33.3 
" clip-path="url(#p5f369dff34)" style="fill: none; stroke: #000000; stroke-width: 2; stroke-linecap: round"/>
   </g>
   <g id="patch_10">
    <path d="M 230.58 30.6 
L 239.58 33.3 
L 230.58 36 
z
" clip-path="url(#p5f369dff34)"/>
   </g>
   <g id="line2d_3">
    <path d="M 313.74 33.3 
L 340.74 33.3 
L 358.74 33.3 
" clip-path="url(#p5f369dff34)" style="fill: none; stroke: #000000; stroke-width: 2; stroke-linecap: round"/>
   </g>
   <g id="patch_11">
    <path d="M 358.74 30.6 
L 367.74 33.3 
L 358.74 36 
z
" clip-path="url(#p5f369dff34)"/>
   </g>
   <g id="text_1">
    <!-- $x_1$ -->
    <g transform="translate(43.8925 36.749219) scale(0.125 -0.125)">
     <defs>
      <path id="DejaVuSans-Oblique-78" d="M 3841 3500 
L 2234 1784 
L 3219 0 
L 2559 0 
L 1819 1388 
L 531 0 
L -166 0 
L 1556 1844 
L 641 3500 
L 1300 3500 
L 1972 2234 
L 3144 3500 
L 3841 3500 
z
" transform="scale(0.015625)"/>
      <path id="DejaVuSans-31" d="M 794 531 
L 1825 531 
L 1825 4091 
L 703 3866 
L 703 4441 
L 1819 4666 
L 2450 4666 
L 2450 531 
L 3481 531 
L 3481 0 
L 794 0 
L 794 531 
z
" transform="scale(0.015625)"/>
     </defs>
     <use xlink:href="#DejaVuSans-Oblique-78" transform="translate(0 0.3125)"/>
     <use xlink:href="#DejaVuSans-31" transform="translate(59.179688 -16.09375) scale(0.7)"/>
    </g>
   </g>
   <g id="text_2">
    <!-- $x_2$ -->
    <g transform="translate(151.8925 36.749219) scale(0.125 -0.125)">
     <defs>
      <path id="DejaVuSans-32" d="M 1228 531 
L 3431 531 
L 3431 0 
L 469 0 
L 469 531 
Q 828 903 1448 1529 
Q 2069 2156 2228 2338 
Q 2531 2678 2651 2914 
Q 2772 3150 2772 3378 
Q 2772 3750 2511 3984 
Q 2250 4219 1831 4219 
Q 1534 4219 1204 4116 
Q 875 4013 500 3803 
L 500 4441 
Q 881 4594 1212 4672 
Q 1544 4750 1819 4750 
Q 2544 4750 2975 4387 
Q 3406 4025 3406 3419 
Q 3406 3131 3298 2873 
Q 3191 2616 2906 2266 
Q 2828 2175 2409 1742 
Q 1991 1309 1228 531 
z
" transform="scale(0.015625)"/>
     </defs>
     <use xlink:href="#DejaVuSans-Oblique-78" transform="translate(0 0.3125)"/>
     <use xlink:href="#DejaVuSans-32" transform="translate(59.179688 -16.09375) scale(0.7)"/>
    </g>
   </g>
   <g id="text_3">
    <!-- $x_3$ -->
    <g transform="translate(259.8925 36.749219) scale(0.125 -0.125)">
     <defs>
      <path id="DejaVuSans-33" d="M 2597 2516 
Q 3050 2419 3304 2112 
Q 3559 1806 3559 1356 
Q 3559 666 3084 287 
Q 2609 -91 1734 -91 
Q 1441 -91 1130 -33 
Q 819 25 488 141 
L 488 750 
Q 750 597 1062 519 
Q 1375 441 1716 441 
Q 2309 441 2620 675 
Q 2931 909 2931 1356 
Q 2931 1769 2642 2001 
Q 2353 2234 1838 2234 
L 1294 2234 
L 1294 2753 
L 1863 2753 
Q 2328 2753 2575 2939 
Q 2822 3125 2822 3475 
Q 2822 3834 2567 4026 
Q 2313 4219 1838 4219 
Q 1578 4219 1281 4162 
Q 984 4106 628 3988 
L 628 4550 
Q 988 4650 1302 4700 
Q 1616 4750 1894 4750 
Q 2613 4750 3031 4423 
Q 3450 4097 3450 3541 
Q 3450 3153 3228 2886 
Q 3006 2619 2597 2516 
z
" transform="scale(0.015625)"/>
     </defs>
     <use xlink:href="#DejaVuSans-Oblique-78" transform="translate(0 0.3125)"/>
     <use xlink:href="#DejaVuSans-33" transform="translate(59.179688 -16.09375) scale(0.7)"/>
    </g>
   </g>
   <g id="text_4">
    <!-- $x_n$ -->
    <g transform="translate(389.4925 36.749219) scale(0.125 -0.125)">
     <defs>
      <path id="DejaVuSans-Oblique-6e" d="M 3566 2113 
L 3156 0 
L 2578 0 
L 2988 2091 
Q 3016 2238 3031 2350 
Q 3047 2463 3047 2528 
Q 3047 2791 2881 2937 
Q 2716 3084 2419 3084 
Q 1956 3084 1622 2776 
Q 1288 2469 1184 1941 
L 800 0 
L 225 0 
L 903 3500 
L 1478 3500 
L 1363 2950 
Q 1603 3253 1940 3418 
Q 2278 3584 2650 3584 
Q 3113 3584 3367 3334 
Q 3622 3084 3622 2631 
Q 3622 2519 3608 2391 
Q 3594 2263 3566 2113 
z
" transform="scale(0.015625)"/>
     </defs>
     <use xlink:href="#DejaVuSans-Oblique-78" transform="translate(0 0.3125)"/>
     <use xlink:href="#DejaVuSans-Oblique-6e" transform="translate(59.179688 -16.09375) scale(0.7)"/>
    </g>
   </g>
  </g>
 </g>
 <defs>
  <clipPath id="p5f369dff34">
   <rect x="3.6" y="3.6" width="439.56" height="59.4"/>
  </clipPath>
 </defs>
</svg>
