<?xml version="1.0" encoding="UTF-8" standalone="no"?>
<!DOCTYPE svg PUBLIC "-//W3C//DTD SVG 1.1//EN"
 "http://www.w3.org/Graphics/SVG/1.1/DTD/svg11.dtd">
<!-- Generated by graphviz version 8.1.0 (20230707.0739)
 -->
<!-- Pages: 1 -->
<svg width="564pt" height="98pt"
 viewBox="0.00 0.00 563.67 98.00" xmlns="http://www.w3.org/2000/svg" xmlns:xlink="http://www.w3.org/1999/xlink">
<g id="graph0" class="graph" transform="scale(1 1) rotate(0) translate(4 94)">
<polygon fill="white" stroke="none" points="-4,4 -4,-94 559.67,-94 559.67,4 -4,4"/>
<!-- x -->
<g id="node1" class="node">
<title>x</title>
<ellipse fill="none" stroke="black" cx="27" cy="-18" rx="27" ry="18"/>
<text text-anchor="middle" x="27" y="-12.95" font-family="Times,serif" font-size="14.00">x</text>
</g>
<!-- u=3xy -->
<g id="node2" class="node">
<title>u=3xy</title>
<polygon fill="none" stroke="black" points="144,-82 90,-82 90,-46 144,-46 144,-82"/>
<text text-anchor="middle" x="117" y="-58.95" font-family="Times,serif" font-size="14.00">u=3xy</text>
</g>
<!-- x&#45;&#45;u=3xy -->
<g id="edge1" class="edge">
<title>x&#45;&#45;u=3xy</title>
<path fill="none" stroke="black" d="M48.85,-28.9C58.19,-33.78 69.48,-39.68 80.11,-45.24"/>
<polygon fill="black" stroke="black" points="78.13,-48.68 88.61,-50.21 81.37,-42.47 78.13,-48.68"/>
</g>
<!-- z=v+(x^2) -->
<g id="node4" class="node">
<title>z=v+(x^2)</title>
<polygon fill="none" stroke="black" points="353,-59 278.5,-59 278.5,-23 353,-23 353,-59"/>
<text text-anchor="middle" x="315.75" y="-35.95" font-family="Times,serif" font-size="14.00">z=v+(x^2)</text>
</g>
<!-- x&#45;&#45;z=v+(x^2) -->
<g id="edge7" class="edge">
<title>x&#45;&#45;z=v+(x^2)</title>
<path fill="none" stroke="black" d="M54.21,-20.1C102.5,-23.98 206.14,-32.29 267.15,-37.18"/>
<polygon fill="black" stroke="black" points="266.78,-40.74 277.02,-38.05 267.34,-33.77 266.78,-40.74"/>
</g>
<!-- v=sin(u) -->
<g id="node3" class="node">
<title>v=sin(u)</title>
<polygon fill="none" stroke="black" points="242.5,-82 180,-82 180,-46 242.5,-46 242.5,-82"/>
<text text-anchor="middle" x="211.25" y="-58.95" font-family="Times,serif" font-size="14.00">v=sin(u)</text>
</g>
<!-- u=3xy&#45;&#45;v=sin(u) -->
<g id="edge3" class="edge">
<title>u=3xy&#45;&#45;v=sin(u)</title>
<path fill="none" stroke="black" d="M144.19,-64C151.89,-64 160.51,-64 168.92,-64"/>
<polygon fill="black" stroke="black" points="168.76,-67.5 178.76,-64 168.76,-60.5 168.76,-67.5"/>
</g>
<!-- v=sin(u)&#45;&#45;z=v+(x^2) -->
<g id="edge4" class="edge">
<title>v=sin(u)&#45;&#45;z=v+(x^2)</title>
<path fill="none" stroke="black" d="M242.73,-57.16C250.53,-55.41 259.1,-53.49 267.53,-51.6"/>
<polygon fill="black" stroke="black" points="268.06,-54.84 277.06,-49.23 266.53,-48.01 268.06,-54.84"/>
</g>
<!-- J=log(z) -->
<g id="node5" class="node">
<title>J=log(z)</title>
<polygon fill="none" stroke="black" points="450.75,-59 389,-59 389,-23 450.75,-23 450.75,-59"/>
<text text-anchor="middle" x="419.88" y="-35.95" font-family="Times,serif" font-size="14.00">J=log(z)</text>
</g>
<!-- z=v+(x^2)&#45;&#45;J=log(z) -->
<g id="edge5" class="edge">
<title>z=v+(x^2)&#45;&#45;J=log(z)</title>
<path fill="none" stroke="black" d="M353.33,-41C361.28,-41 369.74,-41 377.85,-41"/>
<polygon fill="black" stroke="black" points="377.6,-44.5 387.6,-41 377.6,-37.5 377.6,-44.5"/>
</g>
<!-- output -->
<g id="node6" class="node">
<title>output</title>
<ellipse fill="none" stroke="black" cx="521.21" cy="-41" rx="34.46" ry="18"/>
<text text-anchor="middle" x="521.21" y="-35.95" font-family="Times,serif" font-size="14.00">output</text>
</g>
<!-- J=log(z)&#45;&#45;output -->
<g id="edge6" class="edge">
<title>J=log(z)&#45;&#45;output</title>
<path fill="none" stroke="black" d="M451.22,-41C458.99,-41 467.52,-41 475.84,-41"/>
<polygon fill="black" stroke="black" points="475.59,-44.5 485.59,-41 475.59,-37.5 475.59,-44.5"/>
</g>
<!-- y -->
<g id="node7" class="node">
<title>y</title>
<ellipse fill="none" stroke="black" cx="27" cy="-72" rx="27" ry="18"/>
<text text-anchor="middle" x="27" y="-66.95" font-family="Times,serif" font-size="14.00">y</text>
</g>
<!-- y&#45;&#45;u=3xy -->
<g id="edge2" class="edge">
<title>y&#45;&#45;u=3xy</title>
<path fill="none" stroke="black" d="M53.93,-69.64C61.75,-68.93 70.5,-68.14 78.91,-67.37"/>
<polygon fill="black" stroke="black" points="79.01,-70.79 88.65,-66.4 78.37,-63.82 79.01,-70.79"/>
</g>
</g>
</svg>
