<?xml version="1.0" encoding="UTF-8" standalone="no"?>
<!DOCTYPE svg PUBLIC "-//W3C//DTD SVG 1.1//EN"
 "http://www.w3.org/Graphics/SVG/1.1/DTD/svg11.dtd">
<!-- Generated by graphviz version 8.1.0 (20230707.0739)
 -->
<!-- Pages: 1 -->
<svg width="684pt" height="215pt"
 viewBox="0.00 0.00 684.42 214.50" xmlns="http://www.w3.org/2000/svg" xmlns:xlink="http://www.w3.org/1999/xlink">
<g id="graph0" class="graph" transform="scale(1 1) rotate(0) translate(4 210.5)">
<polygon fill="white" stroke="none" points="-4,4 -4,-210.5 680.42,-210.5 680.42,4 -4,4"/>
<!-- x -->
<g id="node1" class="node">
<title>x</title>
<ellipse fill="none" stroke="black" cx="27" cy="-170" rx="27" ry="18"/>
<text text-anchor="middle" x="27" y="-164.95" font-family="Times,serif" font-size="14.00">x</text>
</g>
<!-- u=3xy -->
<g id="node3" class="node">
<title>u=3xy</title>
<polygon fill="none" stroke="black" points="150.75,-111 96.75,-111 96.75,-75 150.75,-75 150.75,-111"/>
<text text-anchor="middle" x="123.75" y="-87.95" font-family="Times,serif" font-size="14.00">u=3xy</text>
</g>
<!-- x&#45;&#45;u=3xy -->
<g id="edge4" class="edge">
<title>x&#45;&#45;u=3xy</title>
<path fill="none" stroke="black" d="M44.94,-156.23C57.96,-145.65 76.31,-130.74 91.92,-118.06"/>
<polygon fill="black" stroke="black" points="93.7,-120.3 99.26,-111.28 89.29,-114.87 93.7,-120.3"/>
<text text-anchor="middle" x="75.38" y="-137.2" font-family="Times,serif" font-size="14.00" fill="green">2</text>
</g>
<!-- z=v+(x^2) -->
<g id="node5" class="node">
<title>z=v+(x^2)</title>
<polygon fill="none" stroke="black" points="412.25,-172 337.75,-172 337.75,-136 412.25,-136 412.25,-172"/>
<text text-anchor="middle" x="375" y="-148.95" font-family="Times,serif" font-size="14.00">z=v+(x^2)</text>
</g>
<!-- x&#45;&#45;z=v+(x^2) -->
<g id="edge8" class="edge">
<title>x&#45;&#45;z=v+(x^2)</title>
<path fill="none" stroke="black" d="M52.02,-176.99C58.46,-178.59 65.45,-180.09 72,-181 181.15,-196.16 211.81,-193.2 319.75,-171 322.11,-170.52 324.51,-169.97 326.92,-169.38"/>
<polygon fill="black" stroke="black" points="327.74,-172.51 336.49,-166.54 325.93,-165.75 327.74,-172.51"/>
<text text-anchor="middle" x="180.75" y="-193.2" font-family="Times,serif" font-size="14.00" fill="green">2</text>
</g>
<!-- y -->
<g id="node2" class="node">
<title>y</title>
<ellipse fill="none" stroke="black" cx="27" cy="-18" rx="27" ry="18"/>
<text text-anchor="middle" x="27" y="-12.95" font-family="Times,serif" font-size="14.00">y</text>
</g>
<!-- y&#45;&#45;u=3xy -->
<g id="edge2" class="edge">
<title>y&#45;&#45;u=3xy</title>
<path fill="none" stroke="black" d="M53.62,-14.01C62.12,-13.89 71.3,-15.13 78.75,-19.5 95.59,-29.38 106.73,-48.44 113.58,-64.68"/>
<polygon fill="black" stroke="black" points="110.63,-65.75 117.49,-73.82 117.16,-63.23 110.63,-65.75"/>
<text text-anchor="middle" x="75.38" y="-23.2" font-family="Times,serif" font-size="14.00" fill="green">3</text>
</g>
<!-- u=3xy&#45;&#45;x -->
<g id="edge5" class="edge">
<title>u=3xy&#45;&#45;x</title>
<path fill="none" stroke="black" d="M96.49,-98.15C88.13,-100.65 79.2,-104.27 72,-109.5 59.73,-118.41 49.5,-131.78 42,-143.69"/>
<polygon fill="black" stroke="black" points="38.68,-141.43 36.58,-151.81 44.7,-145 38.68,-141.43"/>
<text text-anchor="middle" x="75.38" y="-113.2" font-family="Times,serif" font-size="14.00" fill="red">9</text>
</g>
<!-- u=3xy&#45;&#45;y -->
<g id="edge3" class="edge">
<title>u=3xy&#45;&#45;y</title>
<path fill="none" stroke="black" d="M99.41,-74.53C85.57,-63.57 68,-49.67 53.76,-38.39"/>
<polygon fill="black" stroke="black" points="56.39,-35.22 46.38,-31.76 52.05,-40.71 56.39,-35.22"/>
<text text-anchor="middle" x="75.38" y="-61.2" font-family="Times,serif" font-size="14.00" fill="red">6</text>
</g>
<!-- v=sin(u) -->
<g id="node4" class="node">
<title>v=sin(u)</title>
<polygon fill="none" stroke="black" points="273.25,-126 210.75,-126 210.75,-90 273.25,-90 273.25,-126"/>
<text text-anchor="middle" x="242" y="-102.95" font-family="Times,serif" font-size="14.00">v=sin(u)</text>
</g>
<!-- u=3xy&#45;&#45;v=sin(u) -->
<g id="edge6" class="edge">
<title>u=3xy&#45;&#45;v=sin(u)</title>
<path fill="none" stroke="black" d="M151.04,-78.78C163.71,-73.72 179.09,-70.22 192.75,-74.5 199.26,-76.54 205.67,-79.8 211.58,-83.51"/>
<polygon fill="black" stroke="black" points="209.18,-86.8 219.4,-89.59 213.15,-81.03 209.18,-86.8"/>
<text text-anchor="middle" x="180.75" y="-78.2" font-family="Times,serif" font-size="14.00" fill="green">18</text>
</g>
<!-- v=sin(u)&#45;&#45;u=3xy -->
<g id="edge13" class="edge">
<title>v=sin(u)&#45;&#45;u=3xy</title>
<path fill="none" stroke="black" d="M210.62,-104.08C195.62,-102.14 177.4,-99.79 161.6,-97.76"/>
<polygon fill="black" stroke="black" points="162.49,-94.21 152.13,-96.4 161.6,-101.15 162.49,-94.21"/>
<text text-anchor="middle" x="180.75" y="-105.2" font-family="Times,serif" font-size="14.00" fill="red">0.66</text>
</g>
<!-- v=sin(u)&#45;&#45;z=v+(x^2) -->
<g id="edge7" class="edge">
<title>v=sin(u)&#45;&#45;z=v+(x^2)</title>
<path fill="none" stroke="black" d="M273.5,-97.88C287.99,-94.74 305.27,-93.48 319.75,-99.5 333.56,-105.24 345.68,-116.4 354.93,-127.13"/>
<polygon fill="black" stroke="black" points="352.72,-128.95 361.72,-134.53 358.16,-124.55 352.72,-128.95"/>
<text text-anchor="middle" x="305.5" y="-103.2" font-family="Times,serif" font-size="14.00" fill="green">&#45;0.75</text>
</g>
<!-- z=v+(x^2)&#45;&#45;x -->
<g id="edge1" class="edge">
<title>z=v+(x^2)&#45;&#45;x</title>
<path fill="none" stroke="black" d="M337.32,-155.7C270.98,-158.76 131.75,-165.2 65.1,-168.28"/>
<polygon fill="black" stroke="black" points="65.12,-164.83 55.29,-168.78 65.44,-171.82 65.12,-164.83"/>
<text text-anchor="middle" x="180.75" y="-166.2" font-family="Times,serif" font-size="14.00" fill="red">4</text>
</g>
<!-- z=v+(x^2)&#45;&#45;v=sin(u) -->
<g id="edge11" class="edge">
<title>z=v+(x^2)&#45;&#45;v=sin(u)</title>
<path fill="none" stroke="black" d="M337.42,-141.16C320.81,-135.32 301.09,-128.4 283.98,-122.39"/>
<polygon fill="black" stroke="black" points="285.31,-118.8 274.71,-118.78 282.99,-125.4 285.31,-118.8"/>
<text text-anchor="middle" x="305.5" y="-137.2" font-family="Times,serif" font-size="14.00" fill="red">1</text>
</g>
<!-- J=log(z) -->
<g id="node6" class="node">
<title>J=log(z)</title>
<polygon fill="none" stroke="black" points="540.75,-172 479,-172 479,-136 540.75,-136 540.75,-172"/>
<text text-anchor="middle" x="509.88" y="-148.95" font-family="Times,serif" font-size="14.00">J=log(z)</text>
</g>
<!-- z=v+(x^2)&#45;&#45;J=log(z) -->
<g id="edge9" class="edge">
<title>z=v+(x^2)&#45;&#45;J=log(z)</title>
<path fill="none" stroke="black" d="M412.66,-154C429.76,-154 450.17,-154 467.78,-154"/>
<polygon fill="black" stroke="black" points="467.61,-157.5 477.61,-154 467.61,-150.5 467.61,-157.5"/>
<text text-anchor="middle" x="445.62" y="-157.2" font-family="Times,serif" font-size="14.00" fill="green">3.249</text>
</g>
<!-- J=log(z)&#45;&#45;z=v+(x^2) -->
<g id="edge12" class="edge">
<title>J=log(z)&#45;&#45;z=v+(x^2)</title>
<path fill="none" stroke="black" d="M478.57,-138.87C472.86,-136.64 466.85,-134.7 461,-133.5 447.61,-130.75 443.69,-131.04 430.25,-133.5 427.88,-133.93 425.47,-134.47 423.06,-135.07"/>
<polygon fill="black" stroke="black" points="422.16,-131.98 413.55,-138.16 424.13,-138.7 422.16,-131.98"/>
<text text-anchor="middle" x="445.62" y="-137.2" font-family="Times,serif" font-size="14.00" fill="red">0.307</text>
</g>
<!-- output -->
<g id="node7" class="node">
<title>output</title>
<ellipse fill="none" stroke="black" cx="641.96" cy="-154" rx="34.46" ry="18"/>
<text text-anchor="middle" x="641.96" y="-148.95" font-family="Times,serif" font-size="14.00">output</text>
</g>
<!-- J=log(z)&#45;&#45;output -->
<g id="edge10" class="edge">
<title>J=log(z)&#45;&#45;output</title>
<path fill="none" stroke="black" d="M541.05,-154C557.46,-154 578.07,-154 596.3,-154"/>
<polygon fill="black" stroke="black" points="596.29,-157.5 606.29,-154 596.29,-150.5 596.29,-157.5"/>
<text text-anchor="middle" x="574.12" y="-157.2" font-family="Times,serif" font-size="14.00" fill="green">1.178</text>
</g>
</g>
</svg>
