<?xml version="1.0" encoding="UTF-8" standalone="no"?>
<!DOCTYPE svg PUBLIC "-//W3C//DTD SVG 1.1//EN"
 "http://www.w3.org/Graphics/SVG/1.1/DTD/svg11.dtd">
<!-- Generated by graphviz version 8.1.0 (20230707.0739)
 -->
<!-- Pages: 1 -->
<svg width="684pt" height="107pt"
 viewBox="0.00 0.00 684.42 107.00" xmlns="http://www.w3.org/2000/svg" xmlns:xlink="http://www.w3.org/1999/xlink">
<g id="graph0" class="graph" transform="scale(1 1) rotate(0) translate(4 103)">
<polygon fill="white" stroke="none" points="-4,4 -4,-103 680.42,-103 680.42,4 -4,4"/>
<!-- x -->
<g id="node1" class="node">
<title>x</title>
<ellipse fill="none" stroke="black" cx="27" cy="-81" rx="27" ry="18"/>
<text text-anchor="middle" x="27" y="-75.95" font-family="Times,serif" font-size="14.00">x</text>
</g>
<!-- u=3xy -->
<g id="node2" class="node">
<title>u=3xy</title>
<polygon fill="none" stroke="black" points="150.75,-49 96.75,-49 96.75,-13 150.75,-13 150.75,-49"/>
<text text-anchor="middle" x="123.75" y="-25.95" font-family="Times,serif" font-size="14.00">u=3xy</text>
</g>
<!-- x&#45;&#45;u=3xy -->
<g id="edge1" class="edge">
<title>x&#45;&#45;u=3xy</title>
<path fill="none" stroke="black" d="M48.56,-70.15C59.75,-64.25 73.92,-56.77 86.86,-49.94"/>
<polygon fill="black" stroke="black" points="88.25,-52.64 95.46,-44.87 84.98,-46.45 88.25,-52.64"/>
<text text-anchor="middle" x="75.38" y="-61.2" font-family="Times,serif" font-size="14.00" fill="green">2</text>
</g>
<!-- z=v+(x^2) -->
<g id="node4" class="node">
<title>z=v+(x^2)</title>
<polygon fill="none" stroke="black" points="412.25,-76 337.75,-76 337.75,-40 412.25,-40 412.25,-76"/>
<text text-anchor="middle" x="375" y="-52.95" font-family="Times,serif" font-size="14.00">z=v+(x^2)</text>
</g>
<!-- x&#45;&#45;z=v+(x^2) -->
<g id="edge6" class="edge">
<title>x&#45;&#45;z=v+(x^2)</title>
<path fill="none" stroke="black" d="M54.25,-81.04C105.47,-80.85 222.27,-79.1 319.75,-68 321.98,-67.75 324.26,-67.45 326.55,-67.14"/>
<polygon fill="black" stroke="black" points="326.99,-70.45 336.33,-65.47 325.92,-63.54 326.99,-70.45"/>
<text text-anchor="middle" x="180.75" y="-81.2" font-family="Times,serif" font-size="14.00" fill="green">2</text>
</g>
<!-- v=sin(u) -->
<g id="node3" class="node">
<title>v=sin(u)</title>
<polygon fill="none" stroke="black" points="273.25,-49 210.75,-49 210.75,-13 273.25,-13 273.25,-49"/>
<text text-anchor="middle" x="242" y="-25.95" font-family="Times,serif" font-size="14.00">v=sin(u)</text>
</g>
<!-- u=3xy&#45;&#45;v=sin(u) -->
<g id="edge3" class="edge">
<title>u=3xy&#45;&#45;v=sin(u)</title>
<path fill="none" stroke="black" d="M151.13,-31C165.5,-31 183.6,-31 199.79,-31"/>
<polygon fill="black" stroke="black" points="199.62,-34.5 209.62,-31 199.62,-27.5 199.62,-34.5"/>
<text text-anchor="middle" x="180.75" y="-34.2" font-family="Times,serif" font-size="14.00" fill="green">18</text>
</g>
<!-- v=sin(u)&#45;&#45;u=3xy -->
<g id="edge10" class="edge">
<title>v=sin(u)&#45;&#45;u=3xy</title>
<path fill="none" stroke="black" d="M210.26,-15.31C197.51,-10.63 182.5,-7.45 168.75,-10.5 166.25,-11.05 163.73,-11.76 161.21,-12.59"/>
<polygon fill="black" stroke="black" points="160.16,-9.63 152.09,-16.49 162.68,-16.16 160.16,-9.63"/>
<text text-anchor="middle" x="180.75" y="-14.2" font-family="Times,serif" font-size="14.00" fill="red">0.66</text>
</g>
<!-- v=sin(u)&#45;&#45;z=v+(x^2) -->
<g id="edge4" class="edge">
<title>v=sin(u)&#45;&#45;z=v+(x^2)</title>
<path fill="none" stroke="black" d="M273.71,-37.33C289.5,-40.58 309.07,-44.62 326.73,-48.26"/>
<polygon fill="black" stroke="black" points="325.92,-51.87 336.42,-50.46 327.34,-45.01 325.92,-51.87"/>
<text text-anchor="middle" x="305.5" y="-50.2" font-family="Times,serif" font-size="14.00" fill="green">&#45;0.75</text>
</g>
<!-- z=v+(x^2)&#45;&#45;v=sin(u) -->
<g id="edge5" class="edge">
<title>z=v+(x^2)&#45;&#45;v=sin(u)</title>
<path fill="none" stroke="black" d="M353.1,-39.67C343.6,-32.53 331.8,-25.18 319.75,-21.5 308.46,-18.06 295.88,-18.1 284.21,-19.64"/>
<polygon fill="black" stroke="black" points="283.65,-16.36 274.39,-21.51 284.84,-23.25 283.65,-16.36"/>
<text text-anchor="middle" x="305.5" y="-25.2" font-family="Times,serif" font-size="14.00" fill="red">1</text>
</g>
<!-- J=log(z) -->
<g id="node5" class="node">
<title>J=log(z)</title>
<polygon fill="none" stroke="black" points="540.75,-76 479,-76 479,-40 540.75,-40 540.75,-76"/>
<text text-anchor="middle" x="509.88" y="-52.95" font-family="Times,serif" font-size="14.00">J=log(z)</text>
</g>
<!-- z=v+(x^2)&#45;&#45;J=log(z) -->
<g id="edge7" class="edge">
<title>z=v+(x^2)&#45;&#45;J=log(z)</title>
<path fill="none" stroke="black" d="M412.66,-58C429.76,-58 450.17,-58 467.78,-58"/>
<polygon fill="black" stroke="black" points="467.61,-61.5 477.61,-58 467.61,-54.5 467.61,-61.5"/>
<text text-anchor="middle" x="445.62" y="-61.2" font-family="Times,serif" font-size="14.00" fill="green">3.249</text>
</g>
<!-- J=log(z)&#45;&#45;z=v+(x^2) -->
<g id="edge8" class="edge">
<title>J=log(z)&#45;&#45;z=v+(x^2)</title>
<path fill="none" stroke="black" d="M478.57,-42.87C472.86,-40.64 466.85,-38.7 461,-37.5 447.61,-34.75 443.69,-35.04 430.25,-37.5 427.88,-37.93 425.47,-38.47 423.06,-39.07"/>
<polygon fill="black" stroke="black" points="422.16,-35.98 413.55,-42.16 424.13,-42.7 422.16,-35.98"/>
<text text-anchor="middle" x="445.62" y="-41.2" font-family="Times,serif" font-size="14.00" fill="red">0.307</text>
</g>
<!-- output -->
<g id="node6" class="node">
<title>output</title>
<ellipse fill="none" stroke="black" cx="641.96" cy="-58" rx="34.46" ry="18"/>
<text text-anchor="middle" x="641.96" y="-52.95" font-family="Times,serif" font-size="14.00">output</text>
</g>
<!-- J=log(z)&#45;&#45;output -->
<g id="edge9" class="edge">
<title>J=log(z)&#45;&#45;output</title>
<path fill="none" stroke="black" d="M541.05,-58C557.46,-58 578.07,-58 596.3,-58"/>
<polygon fill="black" stroke="black" points="596.29,-61.5 606.29,-58 596.29,-54.5 596.29,-61.5"/>
<text text-anchor="middle" x="574.12" y="-61.2" font-family="Times,serif" font-size="14.00" fill="green">1.178</text>
</g>
<!-- y -->
<g id="node7" class="node">
<title>y</title>
<ellipse fill="none" stroke="black" cx="27" cy="-18" rx="27" ry="18"/>
<text text-anchor="middle" x="27" y="-12.95" font-family="Times,serif" font-size="14.00">y</text>
</g>
<!-- y&#45;&#45;u=3xy -->
<g id="edge2" class="edge">
<title>y&#45;&#45;u=3xy</title>
<path fill="none" stroke="black" d="M54.44,-17.65C62.29,-17.85 70.9,-18.37 78.75,-19.5 81.1,-19.84 83.5,-20.25 85.92,-20.73"/>
<polygon fill="black" stroke="black" points="84.9,-24.31 95.42,-23.09 86.43,-17.48 84.9,-24.31"/>
<text text-anchor="middle" x="75.38" y="-23.2" font-family="Times,serif" font-size="14.00" fill="green">3</text>
</g>
</g>
</svg>
