<?xml version="1.0" encoding="UTF-8" standalone="no"?>
<!DOCTYPE svg PUBLIC "-//W3C//DTD SVG 1.1//EN"
 "http://www.w3.org/Graphics/SVG/1.1/DTD/svg11.dtd">
<!-- Generated by graphviz version 8.1.0 (20230707.0739)
 -->
<!-- Pages: 1 -->
<svg width="674pt" height="107pt"
 viewBox="0.00 0.00 673.92 107.00" xmlns="http://www.w3.org/2000/svg" xmlns:xlink="http://www.w3.org/1999/xlink">
<g id="graph0" class="graph" transform="scale(1 1) rotate(0) translate(4 103)">
<polygon fill="white" stroke="none" points="-4,4 -4,-103 669.92,-103 669.92,4 -4,4"/>
<!-- x -->
<g id="node1" class="node">
<title>x</title>
<ellipse fill="none" stroke="black" cx="27" cy="-81" rx="27" ry="18"/>
<text text-anchor="middle" x="27" y="-75.95" font-family="Times,serif" font-size="14.00">x</text>
</g>
<!-- u=3xy -->
<g id="node2" class="node">
<title>u=3xy</title>
<polygon fill="none" stroke="black" points="150.75,-62 96.75,-62 96.75,-26 150.75,-26 150.75,-62"/>
<text text-anchor="middle" x="123.75" y="-38.95" font-family="Times,serif" font-size="14.00">u=3xy</text>
</g>
<!-- x&#45;&#45;u=3xy -->
<g id="edge1" class="edge">
<title>x&#45;&#45;u=3xy</title>
<path fill="none" stroke="black" d="M48.73,-70.03C55.98,-66.42 64.25,-62.56 72,-59.5 76.51,-57.72 81.31,-56.02 86.09,-54.44"/>
<polygon fill="black" stroke="black" points="86.92,-57.53 95.4,-51.19 84.81,-50.86 86.92,-57.53"/>
<text text-anchor="middle" x="75.38" y="-63.2" font-family="Times,serif" font-size="14.00" fill="green">2</text>
</g>
<!-- z=v+(x^2) -->
<g id="node4" class="node">
<title>z=v+(x^2)</title>
<polygon fill="none" stroke="black" points="401.75,-85 327.25,-85 327.25,-49 401.75,-49 401.75,-85"/>
<text text-anchor="middle" x="364.5" y="-61.95" font-family="Times,serif" font-size="14.00">z=v+(x^2)</text>
</g>
<!-- x&#45;&#45;z=v+(x^2) -->
<g id="edge5" class="edge">
<title>x&#45;&#45;z=v+(x^2)</title>
<path fill="none" stroke="black" d="M54.44,-81.82C104.36,-83.08 215.87,-84.53 309.25,-76 311.48,-75.8 313.75,-75.55 316.05,-75.28"/>
<polygon fill="black" stroke="black" points="316.38,-78.64 325.82,-73.83 315.45,-71.7 316.38,-78.64"/>
<text text-anchor="middle" x="175.5" y="-85.2" font-family="Times,serif" font-size="14.00" fill="green">2</text>
</g>
<!-- v=sin(u) -->
<g id="node3" class="node">
<title>v=sin(u)</title>
<polygon fill="none" stroke="black" points="262.75,-62 200.25,-62 200.25,-26 262.75,-26 262.75,-62"/>
<text text-anchor="middle" x="231.5" y="-38.95" font-family="Times,serif" font-size="14.00">v=sin(u)</text>
</g>
<!-- u=3xy&#45;&#45;v=sin(u) -->
<g id="edge3" class="edge">
<title>u=3xy&#45;&#45;v=sin(u)</title>
<path fill="none" stroke="black" d="M151.16,-44C162.61,-44 176.29,-44 189.05,-44"/>
<polygon fill="black" stroke="black" points="188.93,-47.5 198.93,-44 188.93,-40.5 188.93,-47.5"/>
<text text-anchor="middle" x="175.5" y="-47.2" font-family="Times,serif" font-size="14.00" fill="green">18</text>
</g>
<!-- v=sin(u)&#45;&#45;z=v+(x^2) -->
<g id="edge4" class="edge">
<title>v=sin(u)&#45;&#45;z=v+(x^2)</title>
<path fill="none" stroke="black" d="M263.21,-49.39C279,-52.16 298.57,-55.6 316.23,-58.7"/>
<polygon fill="black" stroke="black" points="315.47,-62.3 325.92,-60.58 316.68,-55.4 315.47,-62.3"/>
<text text-anchor="middle" x="295" y="-60.2" font-family="Times,serif" font-size="14.00" fill="green">&#45;0.75</text>
</g>
<!-- J=log(z) -->
<g id="node5" class="node">
<title>J=log(z)</title>
<polygon fill="none" stroke="black" points="530.25,-85 468.5,-85 468.5,-49 530.25,-49 530.25,-85"/>
<text text-anchor="middle" x="499.38" y="-61.95" font-family="Times,serif" font-size="14.00">J=log(z)</text>
</g>
<!-- z=v+(x^2)&#45;&#45;J=log(z) -->
<g id="edge6" class="edge">
<title>z=v+(x^2)&#45;&#45;J=log(z)</title>
<path fill="none" stroke="black" d="M402.16,-67C419.26,-67 439.67,-67 457.28,-67"/>
<polygon fill="black" stroke="black" points="457.11,-70.5 467.11,-67 457.11,-63.5 457.11,-70.5"/>
<text text-anchor="middle" x="435.12" y="-70.2" font-family="Times,serif" font-size="14.00" fill="green">3.249</text>
</g>
<!-- J=log(z)&#45;&#45;z=v+(x^2) -->
<g id="edge7" class="edge">
<title>J=log(z)&#45;&#45;z=v+(x^2)</title>
<path fill="none" stroke="black" d="M468.07,-51.87C462.36,-49.64 456.35,-47.7 450.5,-46.5 437.11,-43.75 433.19,-44.04 419.75,-46.5 417.38,-46.93 414.97,-47.47 412.56,-48.07"/>
<polygon fill="black" stroke="black" points="411.66,-44.98 403.05,-51.16 413.63,-51.7 411.66,-44.98"/>
<text text-anchor="middle" x="435.12" y="-50.2" font-family="Times,serif" font-size="14.00" fill="red">0.307</text>
</g>
<!-- output -->
<g id="node6" class="node">
<title>output</title>
<ellipse fill="none" stroke="black" cx="631.46" cy="-67" rx="34.46" ry="18"/>
<text text-anchor="middle" x="631.46" y="-61.95" font-family="Times,serif" font-size="14.00">output</text>
</g>
<!-- J=log(z)&#45;&#45;output -->
<g id="edge8" class="edge">
<title>J=log(z)&#45;&#45;output</title>
<path fill="none" stroke="black" d="M530.55,-67C546.96,-67 567.57,-67 585.8,-67"/>
<polygon fill="black" stroke="black" points="585.79,-70.5 595.79,-67 585.79,-63.5 585.79,-70.5"/>
<text text-anchor="middle" x="563.62" y="-70.2" font-family="Times,serif" font-size="14.00" fill="green">1.178</text>
</g>
<!-- y -->
<g id="node7" class="node">
<title>y</title>
<ellipse fill="none" stroke="black" cx="27" cy="-18" rx="27" ry="18"/>
<text text-anchor="middle" x="27" y="-12.95" font-family="Times,serif" font-size="14.00">y</text>
</g>
<!-- y&#45;&#45;u=3xy -->
<g id="edge2" class="edge">
<title>y&#45;&#45;u=3xy</title>
<path fill="none" stroke="black" d="M54.17,-16.41C62.18,-16.55 70.93,-17.35 78.75,-19.5 81.41,-20.23 84.07,-21.15 86.71,-22.21"/>
<polygon fill="black" stroke="black" points="85.1,-25.78 95.64,-26.81 88.04,-19.43 85.1,-25.78"/>
<text text-anchor="middle" x="75.38" y="-23.2" font-family="Times,serif" font-size="14.00" fill="green">3</text>
</g>
</g>
</svg>
